SplineFontDB: 3.0
FontName: Caulixtla-Mono
FullName: Caulixtla Mono
FamilyName: Caulixtla Mono
Weight: Book
Copyright: Copyright (c) 2015-2017 Belleve Invis. OFL, reserved name "Iosevka"
Version: 0.0.1; ttfautohint (v1.7.9-c794)
ItalicAngle: 0
UnderlinePosition: -75
UnderlineWidth: 50
Ascent: 800
Descent: 200
InvalidEm: 0
sfntRevision: 0x00010000
LayerCount: 2
Layer: 0 1 "Back" 1
Layer: 1 1 "Fore" 0
XUID: [1021 590 -1373747595 23739]
StyleMap: 0x0040
FSType: 0
OS2Version: 4
OS2_WeightWidthSlopeOnly: 0
OS2_UseTypoMetrics: 1
CreationTime: 1479708639
ModificationTime: 1527984054
PfmFamily: 17
TTFWeight: 400
TTFWidth: 5
LineGap: 67
VLineGap: 0
Panose: 2 0 5 9 0 0 0 0 0 0
OS2TypoAscent: 977
OS2TypoAOffset: 0
OS2TypoDescent: -272
OS2TypoDOffset: 0
OS2TypoLinegap: 0
OS2WinAscent: 977
OS2WinAOffset: 0
OS2WinDescent: 272
OS2WinDOffset: 0
HheadAscent: 977
HheadAOffset: 0
HheadDescent: -205
HheadDOffset: 0
OS2SubXSize: 665
OS2SubYSize: 716
OS2SubXOff: 0
OS2SubYOff: 143
OS2SupXSize: 0
OS2SupYSize: 0
OS2SupXOff: 0
OS2SupYOff: 0
OS2StrikeYSize: 51
OS2StrikeYPos: 265
OS2CapHeight: 735
OS2XHeight: 530
OS2FamilyClass: 2057
OS2Vendor: 'CYEL'
OS2CodePages: 2000011f.c4000000
OS2UnicodeRanges: e00002ff.5240fcfb.00040000.00000000
Lookup: 1 0 0 "Single Substitution lookup 0" { "Single Substitution lookup 0 subtable"  } []
Lookup: 1 0 0 "Single Substitution lookup 1" { "Single Substitution lookup 1 subtable"  } []
Lookup: 1 0 0 "Single Substitution lookup 2" { "Single Substitution lookup 2 subtable"  } []
Lookup: 6 0 0 "'ccmp' Composici+APMA-n/descomposici+APMA-n de glifos lookup 3" { "'ccmp' Composici+APMA-n/descomposici+APMA-n de glifos lookup 3 subtable"  } ['ccmp' ('DFLT' <'dflt' > 'cyrl' <'BGR ' 'MKD ' 'SRB ' 'dflt' > 'grek' <'dflt' > 'hani' <'dflt' > 'kana' <'dflt' > 'latn' <'dflt' > ) ]

StartChar: exclam
Encoding: 33 33 2
Width: 500
GlyphClass: 2
Flags: W
AnchorPoint: "Anclaje-5" 434 0 basechar 0
AnchorPoint: "Anclaje-4" 434 735 basechar 0
AnchorPoint: "Anclaje-3" 250 367 basechar 0
AnchorPoint: "Anclaje-2" 250 382 basechar 0
AnchorPoint: "Anclaje-1" 250 0 basechar 0
AnchorPoint: "Anclaje-0" 250 735 basechar 0
LayerCount: 2
Fore
SplineSet
210 260 m 1,0,-1
 210 735 l 1,1,-1
 290 735 l 1,2,-1
 290 260 l 1,3,-1
 210 260 l 1,0,-1
250 -8 m 256,4,5
 228 -8 228 -8 211 1 c 0,6,7
 197 10 197 10 189 24 c 0,8,9
 179 40 179 40 180 63 c 0,10,11
 179 85 179 85 189 101 c 0,12,13
 197 115 197 115 211 124 c 0,14,15
 228 133 228 133 250 133 c 256,16,17
 272 133 272 133 289 124 c 0,18,19
 303 115 303 115 311 101 c 0,20,21
 320 86 320 86 321 63 c 0,22,23
 320 39 320 39 311 24 c 0,24,25
 303 10 303 10 289 1 c 0,26,27
 272 -8 272 -8 250 -8 c 256,4,5
EndSplineSet
EndChar

StartChar: quotedbl
Encoding: 34 34 3
Width: 500
GlyphClass: 2
Flags: W
LayerCount: 2
Fore
SplineSet
388 451 m 1,0,-1
 312 451 l 1,1,2
 312 456 312 456 312 460 c 2,3,-1
 311 470 l 2,4,5
 311 473 311 473 311 475 c 2,6,-1
 311 485 l 2,7,8
 311 490 311 490 310 495 c 2,9,-1
 310 505 l 2,10,11
 310 510 310 510 310 515 c 2,12,-1
 310 525 l 2,13,14
 309 527 309 527 309 530 c 2,15,-1
 309 539 l 2,16,17
 309 544 309 544 309 549 c 2,18,-1
 309 559 l 2,19,20
 308 572 308 572 308 584 c 2,21,-1
 308 594 l 2,22,23
 308 598 308 598 308 604 c 2,24,-1
 307 614 l 2,25,26
 307 618 307 618 307 623 c 2,27,-1
 307 633 l 2,28,29
 307 635 307 635 307 638 c 2,30,-1
 307 648 l 2,31,32
 306 710 306 710 306 772 c 1,33,-1
 394 772 l 1,34,35
 394 683 394 683 392 594 c 2,36,-1
 392 584 l 2,37,38
 392 579 392 579 392 574 c 0,39,40
 392 567 392 567 391 559 c 2,41,-1
 391 549 l 2,42,43
 391 545 391 545 391 539 c 2,44,-1
 391 530 l 2,45,46
 391 527 391 527 390 525 c 2,47,-1
 390 514 l 2,48,49
 390 510 390 510 390 505 c 2,50,-1
 390 495 l 2,51,52
 389 490 389 490 389 485 c 2,53,-1
 389 475 l 2,54,55
 389 472 389 472 389 470 c 2,56,-1
 388 460 l 2,57,58
 388 455 388 455 388 451 c 1,0,-1
188 451 m 1,59,-1
 112 451 l 1,60,61
 112 456 112 456 112 460 c 2,62,-1
 111 470 l 2,63,64
 111 473 111 473 111 475 c 2,65,-1
 111 485 l 2,66,67
 111 490 111 490 110 495 c 2,68,-1
 110 505 l 2,69,70
 110 510 110 510 110 515 c 2,71,-1
 110 525 l 2,72,73
 109 527 109 527 109 530 c 2,74,-1
 109 539 l 2,75,76
 109 544 109 544 109 549 c 2,77,-1
 109 559 l 2,78,79
 108 572 108 572 108 584 c 2,80,-1
 108 594 l 2,81,82
 108 598 108 598 108 604 c 2,83,-1
 107 614 l 2,84,85
 107 618 107 618 107 623 c 2,86,-1
 107 633 l 2,87,88
 107 635 107 635 107 638 c 2,89,-1
 107 648 l 2,90,91
 106 710 106 710 106 772 c 1,92,-1
 194 772 l 1,93,94
 194 683 194 683 192 594 c 2,95,-1
 192 584 l 2,96,97
 192 579 192 579 192 574 c 0,98,99
 192 567 192 567 191 559 c 2,100,-1
 191 549 l 2,101,102
 191 545 191 545 191 539 c 2,103,-1
 191 530 l 2,104,105
 191 527 191 527 190 525 c 2,106,-1
 190 514 l 2,107,108
 190 510 190 510 190 505 c 2,109,-1
 190 495 l 2,110,111
 189 490 189 490 189 485 c 2,112,-1
 189 475 l 2,113,114
 189 472 189 472 189 470 c 2,115,-1
 188 460 l 2,116,117
 188 455 188 455 188 451 c 1,59,-1
EndSplineSet
EndChar

StartChar: numbersign
Encoding: 35 35 4
Width: 500
GlyphClass: 2
Flags: W
LayerCount: 2
Fore
SplineSet
114 -88 m 1,0,-1
 114 148 l 1,1,-1
 30 148 l 1,2,-1
 30 220 l 1,3,-1
 114 220 l 1,4,-1
 114 510 l 1,5,-1
 30 510 l 1,6,-1
 30 582 l 1,7,-1
 114 582 l 1,8,-1
 114 818 l 1,9,-1
 194 818 l 1,10,-1
 194 582 l 1,11,-1
 306 582 l 1,12,-1
 306 818 l 1,13,-1
 386 818 l 1,14,-1
 386 582 l 1,15,-1
 470 582 l 1,16,-1
 470 510 l 1,17,-1
 386 510 l 1,18,-1
 386 220 l 1,19,-1
 470 220 l 1,20,-1
 470 148 l 1,21,-1
 386 148 l 1,22,-1
 386 -88 l 1,23,-1
 306 -88 l 1,24,-1
 306 148 l 1,25,-1
 194 148 l 1,26,-1
 194 -88 l 1,27,-1
 114 -88 l 1,0,-1
194 220 m 1,28,-1
 306 220 l 1,29,-1
 306 510 l 1,30,-1
 194 510 l 1,31,-1
 194 220 l 1,28,-1
EndSplineSet
Substitution2: "'ss09' Style Set 9 lookup 51 subtable" numbersign.ss09
Substitution2: "'ss11' Style Set 11 lookup 50 subtable" numbersign.ss11
EndChar

StartChar: dollar
Encoding: 36 36 5
Width: 500
GlyphClass: 2
Flags: W
AnchorPoint: "Anclaje-5" 434 0 basechar 0
AnchorPoint: "Anclaje-4" 434 735 basechar 0
AnchorPoint: "Anclaje-3" 250 367 basechar 0
AnchorPoint: "Anclaje-2" 250 382 basechar 0
AnchorPoint: "Anclaje-1" 250 0 basechar 0
AnchorPoint: "Anclaje-0" 250 735 basechar 0
LayerCount: 2
Fore
SplineSet
210 -103 m 1,0,-1
 210 31 l 1,1,2
 169 36 169 36 137 55 c 0,3,4
 101 76 101 76 80 111 c 0,5,6
 61 145 61 145 61 184 c 0,7,8
 61 187 61 187 61 192 c 1,9,-1
 141 199 l 2,10,11
 140 195 140 195 140 190 c 0,12,13
 140 167 140 167 151 148 c 0,14,15
 163 128 163 128 184 116 c 0,16,17
 197 108 197 108 213 104 c 1,18,-1
 213 341 l 1,19,20
 197 349 197 349 185 357 c 0,21,22
 120 393 120 393 92 444 c 0,23,24
 66 488 66 488 66 537 c 0,25,26
 66 585 66 585 89 624 c 0,27,28
 109 659 109 659 146 681 c 0,29,30
 174 697 174 697 210 703 c 1,31,-1
 210 838 l 1,32,-1
 290 838 l 1,33,-1
 290 704 l 1,34,35
 331 699 331 699 363 680 c 0,36,37
 399 659 399 659 420 624 c 0,38,39
 439 590 439 590 439 551 c 0,40,41
 439 548 439 548 439 543 c 1,42,-1
 359 536 l 2,43,44
 360 540 360 540 360 545 c 0,45,46
 360 568 360 568 349 587 c 0,47,48
 337 607 337 607 316 619 c 0,49,50
 303 627 303 627 287 631 c 1,51,-1
 287 394 l 1,52,53
 303 386 303 386 315 378 c 0,54,55
 380 342 380 342 408 291 c 0,56,57
 434 247 434 247 434 198 c 0,58,59
 434 150 434 150 411 111 c 0,60,61
 391 76 391 76 354 54 c 0,62,63
 326 38 326 38 290 32 c 1,64,-1
 290 -103 l 1,65,-1
 210 -103 l 1,0,-1
213 433 m 1,66,-1
 213 629 l 1,67,68
 201 625 201 625 191 620 c 0,69,70
 170 607 170 607 159 587 c 0,71,72
 146 565 146 565 146 538 c 128,-1,73
 146 511 146 511 160 485 c 0,74,75
 177 456 177 456 213 433 c 1,66,-1
287 106 m 1,76,77
 299 110 299 110 309 115 c 0,78,79
 330 128 330 128 341 148 c 0,80,81
 354 170 354 170 354 197 c 128,-1,82
 354 224 354 224 340 250 c 0,83,84
 323 279 323 279 287 302 c 1,85,-1
 287 106 l 1,76,77
EndSplineSet
Substitution2: "'ss11' Style Set 11 lookup 59 subtable" dollar.ss11
Substitution2: "'ss09' Style Set 9 lookup 58 subtable" dollar.ss09
EndChar

StartChar: percent
Encoding: 37 37 6
Width: 500
GlyphClass: 2
Flags: W
LayerCount: 2
Fore
SplineSet
66 515 m 1,0,-1
 66 735 l 1,1,-1
 177 735 l 1,2,-1
 177 515 l 1,3,-1
 66 515 l 1,0,-1
66 0 m 1,4,-1
 347 735 l 1,5,-1
 434 735 l 1,6,-1
 153 0 l 1,7,-1
 66 0 l 1,4,-1
323 0 m 1,8,-1
 323 221 l 1,9,-1
 434 221 l 1,10,-1
 434 0 l 1,11,-1
 323 0 l 1,8,-1
EndSplineSet
EndChar

StartChar: ampersand
Encoding: 38 38 7
Width: 500
GlyphClass: 2
Flags: W
LayerCount: 2
Fore
SplineSet
250 -8 m 256,0,1
 191 -8 191 -8 148 17 c 0,2,3
 108 40 108 40 86 80 c 0,4,5
 58 127 58 127 58 188 c 0,6,7
 58 244 58 244 88 297 c 0,8,9
 108 332 108 332 157 376 c 1,10,11
 144 394 144 394 135 410 c 0,12,13
 85 498 85 498 84 579 c 0,14,15
 85 634 85 634 108 673 c 0,16,17
 126 706 126 706 158 724 c 0,18,19
 191 743 191 743 236 743 c 0,20,21
 282 743 282 743 314 724 c 0,22,23
 346 706 346 706 365 673 c 0,24,25
 388 633 388 633 388 580 c 0,26,27
 388 525 388 525 358 473 c 0,28,29
 333 429 333 429 260 369 c 1,30,31
 288 332 288 332 327 288 c 0,32,33
 346 265 346 265 362 245 c 1,34,-1
 362 368 l 1,35,-1
 442 368 l 1,36,-1
 442 195 l 2,37,38
 442 164 442 164 436 137 c 1,39,40
 471 68 471 68 471 0 c 1,41,-1
 391 0 l 1,42,43
 391 22 391 22 387 43 c 1,44,45
 371 28 371 28 352 17 c 0,46,47
 309 -8 309 -8 250 -8 c 256,0,1
218 428 m 1,48,49
 268 472 268 472 286 504 c 0,50,51
 308 542 308 542 308 581 c 0,52,53
 308 614 308 614 294 637 c 0,54,55
 285 654 285 654 270 662.5 c 128,-1,56
 255 671 255 671 236 671 c 256,57,58
 217 671 217 671 202.5 662.5 c 128,-1,59
 188 654 188 654 178 637 c 0,60,61
 165 613 165 613 164 579 c 0,62,63
 165 519 165 519 207 447 c 0,64,65
 212 438 212 438 218 428 c 1,48,49
250 64 m 0,66,67
 282 64 282 64 306 78 c 0,68,69
 329 91 329 91 344 116 c 0,70,71
 349 125 349 125 352 135 c 1,72,73
 327 178 327 178 257 255 c 0,74,75
 226 288 226 288 202 318 c 1,76,77
 173 290 173 290 160 268 c 0,78,79
 138 228 138 228 138 187.5 c 128,-1,80
 138 147 138 147 156 116 c 0,81,82
 170 92 170 92 193.5 78 c 128,-1,83
 217 64 217 64 250 64 c 0,66,67
EndSplineSet
EndChar

StartChar: quotesingle
Encoding: 39 39 8
Width: 500
GlyphClass: 2
Flags: W
LayerCount: 2
Fore
SplineSet
288 451 m 1,0,-1
 212 451 l 1,1,2
 212 456 212 456 212 460 c 2,3,-1
 211 470 l 2,4,5
 211 473 211 473 211 475 c 2,6,-1
 211 485 l 2,7,8
 211 490 211 490 210 495 c 2,9,-1
 210 505 l 2,10,11
 210 510 210 510 210 515 c 2,12,-1
 210 525 l 2,13,14
 209 527 209 527 209 530 c 2,15,-1
 209 539 l 2,16,17
 209 544 209 544 209 549 c 2,18,-1
 209 559 l 2,19,20
 208 572 208 572 208 584 c 2,21,-1
 208 594 l 2,22,23
 208 598 208 598 208 604 c 2,24,-1
 207 614 l 2,25,26
 207 618 207 618 207 623 c 2,27,-1
 207 633 l 2,28,29
 207 635 207 635 207 638 c 2,30,-1
 207 648 l 2,31,32
 206 710 206 710 206 772 c 1,33,-1
 294 772 l 1,34,35
 294 683 294 683 292 594 c 2,36,-1
 292 584 l 2,37,38
 292 579 292 579 292 574 c 0,39,40
 292 567 292 567 291 559 c 2,41,-1
 291 549 l 2,42,43
 291 545 291 545 291 539 c 2,44,-1
 291 530 l 2,45,46
 291 527 291 527 290 525 c 2,47,-1
 290 514 l 2,48,49
 290 510 290 510 290 505 c 2,50,-1
 290 495 l 2,51,52
 289 490 289 490 289 485 c 2,53,-1
 289 475 l 2,54,55
 289 472 289 472 289 470 c 2,56,-1
 288 460 l 2,57,58
 288 455 288 455 288 451 c 1,0,-1
EndSplineSet
EndChar

StartChar: parenleft
Encoding: 40 40 9
Width: 500
GlyphClass: 2
Flags: W
LayerCount: 2
Fore
SplineSet
397 -188 m 1,0,1
 290 -120 290 -120 227 -10 c 0,2,3
 141 139 141 139 140 359 c 2,4,-1
 140 371 l 2,5,6
 141 591 141 591 227 740 c 0,7,8
 290 850 290 850 397 918 c 1,9,-1
 440 857 l 1,10,11
 351 798 351 798 298 706 c 0,12,13
 221 572 221 572 220 371 c 2,14,-1
 220 359 l 2,15,16
 221 158 221 158 298 24 c 0,17,18
 351 -68 351 -68 440 -127 c 1,19,-1
 397 -188 l 1,0,1
EndSplineSet
EndChar

StartChar: parenright
Encoding: 41 41 10
Width: 500
GlyphClass: 2
Flags: W
LayerCount: 2
Fore
SplineSet
103 -188 m 1,0,-1
 60 -127 l 1,1,2
 149 -68 149 -68 202 24 c 0,3,4
 279 158 279 158 280 359 c 2,5,-1
 280 371 l 2,6,7
 279 572 279 572 202 706 c 0,8,9
 149 798 149 798 60 857 c 1,10,-1
 103 918 l 1,11,12
 210 850 210 850 273 740 c 0,13,14
 359 591 359 591 360 371 c 2,15,-1
 360 359 l 2,16,17
 359 139 359 139 273 -10 c 0,18,19
 210 -120 210 -120 103 -188 c 1,0,-1
EndSplineSet
EndChar

StartChar: asterisk
Encoding: 42 42 11
Width: 500
GlyphClass: 2
Flags: W
LayerCount: 2
Fore
SplineSet
341 444 m 1,0,-1
 250 580 l 1,1,-1
 159 444 l 1,2,-1
 94 487 l 1,3,-1
 199 620 l 1,4,-1
 38 666 l 1,5,-1
 63 735 l 1,6,-1
 216 679 l 1,7,-1
 210 846 l 1,8,-1
 290 846 l 1,9,-1
 284 679 l 1,10,-1
 437 735 l 1,11,-1
 462 666 l 1,12,-1
 301 620 l 1,13,-1
 406 487 l 1,14,-1
 341 444 l 1,0,-1
EndSplineSet
Substitution2: "'ss10' Style Set 10 lookup 49 subtable" asterisk.ss10
Substitution2: "'ss11' Style Set 11 lookup 48 subtable" asterisk.ss11
EndChar

StartChar: plus
Encoding: 43 43 12
Width: 500
GlyphClass: 2
Flags: W
AnchorPoint: "Anclaje-5" 434 0 basechar 0
AnchorPoint: "Anclaje-4" 434 530 basechar 0
AnchorPoint: "Anclaje-3" 250 365 basechar 0
AnchorPoint: "Anclaje-2" 250 373 basechar 0
AnchorPoint: "Anclaje-1" 250 162 basechar 0
AnchorPoint: "Anclaje-0" 250 567 basechar 0
LayerCount: 2
Fore
SplineSet
290 163 m 1,0,-1
 210 163 l 1,1,-1
 210 329 l 1,2,-1
 66 329 l 1,3,-1
 66 401 l 1,4,-1
 210 401 l 1,5,-1
 210 567 l 1,6,-1
 290 567 l 1,7,-1
 290 401 l 1,8,-1
 434 401 l 1,9,-1
 434 329 l 1,10,-1
 290 329 l 1,11,-1
 290 163 l 1,0,-1
EndSplineSet
EndChar

StartChar: comma
Encoding: 44 44 13
Width: 500
GlyphClass: 2
Flags: W
LayerCount: 2
Fore
SplineSet
229 -205 m 1,0,-1
 166 -164 l 1,1,2
 183 -140 183 -140 196 -118 c 0,3,4
 228 -63 228 -63 241 -8 c 1,5,6
 222 -6 222 -6 207 2.5 c 128,-1,7
 192 11 192 11 182 27 c 0,8,9
 172 45 172 45 172 70 c 128,-1,10
 172 95 172 95 182 113 c 0,11,12
 192 129 192 129 207 138 c 0,13,14
 225 148 225 148 250 148 c 256,15,16
 275 148 275 148 293 138 c 0,17,18
 308 129 308 129 318 113 c 0,19,20
 327 96 327 96 328 70 c 0,21,22
 328 -41 328 -41 264 -150 c 0,23,24
 249 -177 249 -177 229 -205 c 1,0,-1
EndSplineSet
EndChar

StartChar: hyphen
Encoding: 45 45 14
Width: 500
GlyphClass: 2
Flags: W
LayerCount: 2
Fore
SplineSet
66 329 m 1,0,-1
 66 401 l 1,1,-1
 434 401 l 1,2,-1
 434 329 l 1,3,-1
 66 329 l 1,0,-1
EndSplineSet
EndChar

StartChar: period
Encoding: 46 46 15
Width: 500
GlyphClass: 2
Flags: W
LayerCount: 2
Fore
SplineSet
250 -8 m 256,0,1
 225 -8 225 -8 207 2 c 0,2,3
 192 11 192 11 182 27 c 0,4,5
 172 45 172 45 172 70 c 128,-1,6
 172 95 172 95 182 113 c 0,7,8
 192 129 192 129 207 138 c 0,9,10
 225 148 225 148 250 148 c 256,11,12
 275 148 275 148 293 138 c 0,13,14
 308 129 308 129 318 113 c 0,15,16
 328 95 328 95 328 70 c 128,-1,17
 328 45 328 45 318 27 c 0,18,19
 308 11 308 11 293 2 c 0,20,21
 275 -8 275 -8 250 -8 c 256,0,1
EndSplineSet
EndChar

StartChar: slash
Encoding: 47 47 16
Width: 500
GlyphClass: 2
Flags: W
LayerCount: 2
Fore
SplineSet
61 -168 m 1,0,-1
 357 898 l 1,1,-1
 439 898 l 1,2,-1
 143 -168 l 1,3,-1
 61 -168 l 1,0,-1
EndSplineSet
EndChar

StartChar: zero
Encoding: 48 48 17
Width: 500
GlyphClass: 2
Flags: W
AnchorPoint: "Anclaje-5" 434 0 basechar 0
AnchorPoint: "Anclaje-4" 434 735 basechar 0
AnchorPoint: "Anclaje-3" 250 367 basechar 0
AnchorPoint: "Anclaje-2" 250 382 basechar 0
AnchorPoint: "Anclaje-1" 250 0 basechar 0
AnchorPoint: "Anclaje-0" 250 735 basechar 0
LayerCount: 2
Fore
SplineSet
250 -8 m 256,0,1
 192 -8 192 -8 149.5 16.5 c 128,-1,2
 107 41 107 41 82 85 c 0,3,4
 50 140 50 140 50 220 c 2,5,-1
 50 515 l 2,6,7
 50 595 50 595 82 650 c 0,8,9
 107 694 107 694 149.5 718.5 c 128,-1,10
 192 743 192 743 250 743 c 256,11,12
 308 743 308 743 350.5 718.5 c 128,-1,13
 393 694 393 694 418 650 c 0,14,15
 450 595 450 595 450 515 c 2,16,-1
 450 220 l 2,17,18
 450 140 450 140 418 85 c 0,19,20
 393 41 393 41 350.5 16.5 c 128,-1,21
 308 -8 308 -8 250 -8 c 256,0,1
250 64 m 256,22,23
 282 64 282 64 306 78 c 0,24,25
 331 93 331 93 347 121 c 0,26,27
 370 160 370 160 370 220 c 2,28,-1
 370 464 l 1,29,-1
 139 154 l 1,30,31
 144 136 144 136 153 121 c 0,32,33
 169 93 169 93 194 78 c 0,34,35
 218 64 218 64 250 64 c 256,22,23
130 271 m 1,36,-1
 361 581 l 1,37,38
 356 599 356 599 347 614 c 0,39,40
 331 642 331 642 306 657 c 0,41,42
 282 671 282 671 250 671 c 256,43,44
 218 671 218 671 194 657 c 0,45,46
 169 642 169 642 153 614 c 0,47,48
 130 575 130 575 130 515 c 2,49,-1
 130 271 l 1,36,-1
EndSplineSet
Substitution2: "'ss11' Style Set 11 lookup 36 subtable" zero.ss11
Substitution2: "'ss09' Style Set 9 lookup 35 subtable" zero.ss09
Substitution2: "'ss10' Style Set 10 lookup 34 subtable" zero.ss10
EndChar

StartChar: one
Encoding: 49 49 18
Width: 500
GlyphClass: 2
Flags: W
AnchorPoint: "Anclaje-5" 434 0 basechar 0
AnchorPoint: "Anclaje-4" 434 735 basechar 0
AnchorPoint: "Anclaje-3" 250 367 basechar 0
AnchorPoint: "Anclaje-2" 250 382 basechar 0
AnchorPoint: "Anclaje-1" 250 0 basechar 0
AnchorPoint: "Anclaje-0" 250 735 basechar 0
LayerCount: 2
Fore
SplineSet
85 0 m 1,0,-1
 85 72 l 1,1,-1
 220 72 l 1,2,-1
 220 645 l 1,3,-1
 92 559 l 1,4,-1
 48 619 l 1,5,-1
 220 735 l 1,6,-1
 300 735 l 1,7,-1
 300 72 l 1,8,-1
 435 72 l 1,9,-1
 435 0 l 1,10,-1
 85 0 l 1,0,-1
EndSplineSet
Substitution2: "Single Substitution lookup 38 subtable" one.cv51
Substitution2: "'ss11' Style Set 11 lookup 37 subtable" one.ss11
EndChar

StartChar: two
Encoding: 50 50 19
Width: 500
GlyphClass: 2
Flags: W
AnchorPoint: "Anclaje-5" 434 0 basechar 0
AnchorPoint: "Anclaje-4" 434 735 basechar 0
AnchorPoint: "Anclaje-3" 250 367 basechar 0
AnchorPoint: "Anclaje-2" 250 382 basechar 0
AnchorPoint: "Anclaje-1" 250 0 basechar 0
AnchorPoint: "Anclaje-0" 250 735 basechar 0
LayerCount: 2
Fore
SplineSet
66 0 m 1,0,-1
 66 1 l 2,1,2
 66 139 66 139 110 215 c 0,3,4
 144 274 144 274 234 350 c 0,5,6
 311 415 311 415 336 458 c 0,7,8
 362 503 362 503 362 549 c 0,9,10
 362 589 362 589 344 619 c 0,11,12
 331 644 331 644 307 657.5 c 128,-1,13
 283 671 283 671 250 671 c 0,14,15
 218 671 218 671 194 657 c 0,16,17
 171 644 171 644 156 619 c 0,18,19
 143 595 143 595 139 566 c 1,20,-1
 61 580 l 1,21,22
 66 621 66 621 86 656 c 0,23,24
 109 695 109 695 148 718 c 0,25,26
 191 743 191 743 250 743 c 0,27,28
 310 743 310 743 352 718 c 0,29,30
 391 696 391 696 415 656 c 0,31,32
 442 608 442 608 442 549 c 0,33,34
 442 489 442 489 408 431 c 0,35,36
 381 382 381 382 297 308 c 0,37,38
 215 235 215 235 184 183 c 0,39,40
 159 138 159 138 150 72 c 1,41,-1
 354 72 l 1,42,-1
 354 145 l 1,43,-1
 434 145 l 1,44,-1
 434 0 l 1,45,-1
 66 0 l 1,0,-1
EndSplineSet
EndChar

StartChar: three
Encoding: 51 51 20
Width: 500
GlyphClass: 2
Flags: W
AnchorPoint: "Anclaje-5" 434 0 basechar 0
AnchorPoint: "Anclaje-4" 434 735 basechar 0
AnchorPoint: "Anclaje-3" 250 367 basechar 0
AnchorPoint: "Anclaje-2" 250 382 basechar 0
AnchorPoint: "Anclaje-1" 250 0 basechar 0
AnchorPoint: "Anclaje-0" 250 735 basechar 0
LayerCount: 2
Fore
SplineSet
250 -8 m 0,0,1
 188 -8 188 -8 144 18 c 0,2,3
 103 41 103 41 78 84 c 0,4,5
 59 116 59 116 53 155 c 1,6,-1
 131 172 l 1,7,8
 135 145 135 145 148 120 c 0,9,10
 164 93 164 93 189 79 c 0,11,12
 215 64 215 64 250 64 c 256,13,14
 285 64 285 64 310 78.5 c 128,-1,15
 335 93 335 93 351 120 c 0,16,17
 370 154 370 154 370 196 c 128,-1,18
 370 238 370 238 350 272 c 0,19,20
 331 306 331 306 297 326 c 0,21,22
 255 350 255 350 173 350 c 1,23,-1
 173 422 l 1,24,25
 250 422 250 422 289 444 c 0,26,27
 319 462 319 462 336.5 492 c 128,-1,28
 354 522 354 522 354 558 c 128,-1,29
 354 594 354 594 338 623 c 0,30,31
 324 646 324 646 303 658 c 0,32,33
 281 671 281 671 251 671 c 256,34,35
 221 671 221 671 199 658 c 0,36,37
 178 646 178 646 164 623 c 0,38,39
 150 598 150 598 148 568 c 1,40,-1
 69 580 l 1,41,42
 73 624 73 624 94 659 c 0,43,44
 116 697 116 697 153 719 c 0,45,46
 194 743 194 743 251 743 c 0,47,48
 307 743 307 743 348 719 c 0,49,50
 385 698 385 698 408 660 c 0,51,52
 434 613 434 613 434 559 c 0,53,54
 434 509 434 509 410 467 c 128,-1,55
 386 425 386 425 343 400 c 0,56,57
 329 392 329 392 312 386 c 1,58,59
 334 379 334 379 351 370 c 0,60,61
 398 342 398 342 423 297 c 0,62,63
 450 251 450 251 450 195 c 0,64,65
 450 134 450 134 421 83 c 0,66,67
 397 42 397 42 356 18 c 0,68,69
 311 -8 311 -8 250 -8 c 0,0,1
EndSplineSet
Substitution2: "'ss10' Style Set 10 lookup 40 subtable" three.ss10
Substitution2: "'ss11' Style Set 11 lookup 39 subtable" three.ss11
EndChar

StartChar: four
Encoding: 52 52 21
Width: 500
GlyphClass: 2
Flags: W
AnchorPoint: "Anclaje-5" 434 0 basechar 0
AnchorPoint: "Anclaje-4" 434 735 basechar 0
AnchorPoint: "Anclaje-3" 250 367 basechar 0
AnchorPoint: "Anclaje-2" 250 382 basechar 0
AnchorPoint: "Anclaje-1" 250 0 basechar 0
AnchorPoint: "Anclaje-0" 250 735 basechar 0
LayerCount: 2
Fore
SplineSet
245 0 m 1,0,-1
 245 72 l 1,1,-1
 290 72 l 1,2,-1
 290 222 l 1,3,-1
 50 222 l 1,4,-1
 50 294 l 1,5,-1
 272 735 l 1,6,-1
 370 735 l 1,7,-1
 370 294 l 1,8,-1
 434 294 l 1,9,-1
 434 222 l 1,10,-1
 370 222 l 1,11,-1
 370 72 l 1,12,-1
 415 72 l 1,13,-1
 415 0 l 1,14,-1
 245 0 l 1,0,-1
129 294 m 1,15,-1
 290 294 l 1,16,-1
 290 613 l 1,17,-1
 129 294 l 1,15,-1
EndSplineSet
EndChar

StartChar: five
Encoding: 53 53 22
Width: 500
GlyphClass: 2
Flags: W
AnchorPoint: "Anclaje-5" 434 0 basechar 0
AnchorPoint: "Anclaje-4" 434 735 basechar 0
AnchorPoint: "Anclaje-3" 250 367 basechar 0
AnchorPoint: "Anclaje-2" 250 382 basechar 0
AnchorPoint: "Anclaje-1" 250 0 basechar 0
AnchorPoint: "Anclaje-0" 250 735 basechar 0
LayerCount: 2
Fore
SplineSet
251 -8 m 256,0,1
 196 -8 196 -8 156 16 c 0,2,3
 114 40 114 40 88 85 c 0,4,5
 69 117 69 117 61 155 c 1,6,-1
 135 182 l 1,7,8
 142 148 142 148 157 121 c 0,9,10
 174 92 174 92 199 77 c 0,11,12
 222 64 222 64 251 64 c 256,13,14
 280 64 280 64 303 77 c 0,15,16
 328 91 328 91 344 120 c 0,17,18
 370 165 370 165 370 236 c 128,-1,19
 370 307 370 307 344 352 c 0,20,21
 328 380 328 380 304 394 c 0,22,23
 282 406 282 406 255 406 c 0,24,25
 227 406 227 406 205 394 c 0,26,27
 181 380 181 380 164 351 c 0,28,29
 153 331 153 331 147 308 c 1,30,-1
 75 340 l 1,31,-1
 75 735 l 1,32,-1
 424 735 l 1,33,-1
 424 590 l 1,34,-1
 344 590 l 1,35,-1
 344 663 l 1,36,-1
 155 663 l 1,37,-1
 155 451 l 1,38,39
 159 453 159 453 163 456 c 0,40,41
 202 478 202 478 255 478 c 256,42,43
 308 478 308 478 348 455 c 0,44,45
 389 432 389 432 415 387 c 0,46,47
 450 326 450 326 450 235.5 c 128,-1,48
 450 145 450 145 415 85 c 0,49,50
 389 40 389 40 347 16 c 0,51,52
 306 -8 306 -8 251 -8 c 256,0,1
EndSplineSet
EndChar

StartChar: six
Encoding: 54 54 23
Width: 500
GlyphClass: 2
Flags: W
AnchorPoint: "Anclaje-5" 434 0 basechar 0
AnchorPoint: "Anclaje-4" 434 735 basechar 0
AnchorPoint: "Anclaje-3" 250 367 basechar 0
AnchorPoint: "Anclaje-2" 250 382 basechar 0
AnchorPoint: "Anclaje-1" 250 0 basechar 0
AnchorPoint: "Anclaje-0" 250 735 basechar 0
LayerCount: 2
Fore
SplineSet
250 -8 m 0,0,1
 192 -8 192 -8 149 17 c 0,2,3
 107 41 107 41 82 85 c 0,4,5
 50 140 50 140 50 220 c 0,6,7
 50 430 50 430 123 558 c 0,8,9
 177 651 177 651 268 703 c 0,10,11
 302 723 302 723 339 735 c 1,12,-1
 364 667 l 1,13,14
 339 657 339 657 315 644 c 0,15,16
 239 599 239 599 194 522 c 0,17,18
 166 472 166 472 150 407 c 1,19,20
 164 422 164 422 181 432 c 0,21,22
 210 449 210 449 253 449 c 0,23,24
 308 449 308 449 351 424 c 0,25,26
 393 400 393 400 418 356 c 0,27,28
 450 301 450 301 450 220.5 c 128,-1,29
 450 140 450 140 418 85 c 0,30,31
 393 41 393 41 351 17 c 0,32,33
 331 5 331 5 309 -1 c 0,34,35
 282 -8 282 -8 250 -8 c 0,0,1
250 64 m 256,36,37
 282 64 282 64 305 78 c 0,38,39
 331 92 331 92 347 121 c 0,40,41
 370 160 370 160 370 220.5 c 128,-1,42
 370 281 370 281 347 321 c 0,43,44
 331 349 331 349 306 363 c 0,45,46
 282 377 282 377 251 377 c 0,47,48
 219 377 219 377 195 363 c 0,49,50
 169 348 169 348 153 320 c 0,51,52
 130 280 130 280 130 220 c 128,-1,53
 130 160 130 160 153 121 c 0,54,55
 169 92 169 92 195 78 c 0,56,57
 218 64 218 64 250 64 c 256,36,37
EndSplineSet
EndChar

StartChar: seven
Encoding: 55 55 24
Width: 500
GlyphClass: 2
Flags: W
AnchorPoint: "Anclaje-5" 434 0 basechar 0
AnchorPoint: "Anclaje-4" 434 735 basechar 0
AnchorPoint: "Anclaje-3" 250 367 basechar 0
AnchorPoint: "Anclaje-2" 250 382 basechar 0
AnchorPoint: "Anclaje-1" 250 0 basechar 0
AnchorPoint: "Anclaje-0" 250 735 basechar 0
LayerCount: 2
Fore
SplineSet
127 0 m 1,0,-1
 349 663 l 1,1,-1
 138 663 l 1,2,-1
 138 590 l 1,3,-1
 58 590 l 1,4,-1
 58 735 l 1,5,-1
 434 735 l 1,6,-1
 434 663 l 1,7,-1
 211 0 l 1,8,-1
 127 0 l 1,0,-1
EndSplineSet
EndChar

StartChar: eight
Encoding: 56 56 25
Width: 500
GlyphClass: 2
Flags: W
AnchorPoint: "Anclaje-5" 434 0 basechar 0
AnchorPoint: "Anclaje-4" 434 735 basechar 0
AnchorPoint: "Anclaje-3" 250 367 basechar 0
AnchorPoint: "Anclaje-2" 250 382 basechar 0
AnchorPoint: "Anclaje-1" 250 0 basechar 0
AnchorPoint: "Anclaje-0" 250 735 basechar 0
LayerCount: 2
Fore
SplineSet
250 -8 m 256,0,1
 183 -8 183 -8 136 19 c 0,2,3
 96 42 96 42 74 80 c 0,4,5
 50 122 50 122 50 173.5 c 128,-1,6
 50 225 50 225 78 274 c 0,7,8
 106 322 106 322 185 377 c 1,9,10
 119 425 119 425 94 468 c 0,11,12
 66 517 66 517 66 568.5 c 128,-1,13
 66 620 66 620 90 661 c 0,14,15
 110 697 110 697 148 719 c 0,16,17
 190 743 190 743 250 743 c 256,18,19
 310 743 310 743 352 719 c 0,20,21
 390 697 390 697 410 661 c 0,22,23
 434 620 434 620 434 568.5 c 128,-1,24
 434 517 434 517 406 468 c 0,25,26
 381 425 381 425 315 377 c 1,27,28
 394 322 394 322 422 274 c 0,29,30
 450 225 450 225 450 173.5 c 128,-1,31
 450 122 450 122 426 80 c 0,32,33
 404 42 404 42 364 19 c 0,34,35
 317 -8 317 -8 250 -8 c 256,0,1
250 64 m 256,36,37
 290 64 290 64 319 80 c 0,38,39
 342 94 342 94 356 117 c 0,40,41
 370 142 370 142 370 173 c 0,42,43
 370 208 370 208 350 242 c 0,44,45
 326 284 326 284 250 333 c 1,46,47
 174 284 174 284 150 242 c 0,48,49
 130 208 130 208 130 173 c 0,50,51
 130 142 130 142 144 117 c 0,52,53
 158 94 158 94 181 80 c 0,54,55
 210 64 210 64 250 64 c 256,36,37
250 420 m 1,56,57
 313 463 313 463 335 500 c 0,58,59
 354 535 354 535 354 569 c 0,60,61
 354 600 354 600 340 624 c 0,62,63
 328 645 328 645 307 657 c 0,64,65
 283 671 283 671 250 671 c 256,66,67
 217 671 217 671 193 657 c 0,68,69
 172 645 172 645 160 624 c 0,70,71
 146 600 146 600 146 569 c 0,72,73
 146 535 146 535 165 500 c 0,74,75
 187 463 187 463 250 420 c 1,56,57
EndSplineSet
EndChar

StartChar: nine
Encoding: 57 57 26
Width: 500
GlyphClass: 2
Flags: W
AnchorPoint: "Anclaje-5" 434 0 basechar 0
AnchorPoint: "Anclaje-4" 434 735 basechar 0
AnchorPoint: "Anclaje-3" 250 367 basechar 0
AnchorPoint: "Anclaje-2" 250 382 basechar 0
AnchorPoint: "Anclaje-1" 250 0 basechar 0
AnchorPoint: "Anclaje-0" 250 735 basechar 0
LayerCount: 2
Fore
SplineSet
250 -8 m 0,0,1
 197 -8 197 -8 158 15 c 0,2,3
 115 39 115 39 89 86 c 0,4,5
 71 117 71 117 61 155 c 1,6,-1
 133 187 l 1,7,8
 140 152 140 152 156 123 c 0,9,10
 175 91 175 91 200 77 c 0,11,12
 222 64 222 64 250 64 c 0,13,14
 277 64 277 64 298 76 c 0,15,16
 323 91 323 91 340 121 c 0,17,18
 370 172 370 172 370 257 c 2,19,-1
 370 335 l 1,20,21
 349 303 349 303 319.5 285.5 c 128,-1,22
 290 268 290 268 247 268 c 0,23,24
 192 268 192 268 149.5 292.5 c 128,-1,25
 107 317 107 317 82 361 c 0,26,27
 50 416 50 416 50 496 c 2,28,-1
 50 515 l 2,29,30
 50 595 50 595 82 650 c 0,31,32
 107 694 107 694 149.5 718.5 c 128,-1,33
 192 743 192 743 250 743 c 0,34,35
 307 743 307 743 348 719 c 0,36,37
 391 695 391 695 416 650 c 0,38,39
 450 592 450 592 450 506 c 2,40,-1
 450 257 l 2,41,42
 450 154 450 154 411 86 c 0,43,44
 383 39 383 39 341 15 c 0,45,46
 302 -8 302 -8 250 -8 c 0,0,1
249 340 m 0,47,48
 281 340 281 340 305 354 c 0,49,50
 331 369 331 369 347 397 c 0,51,52
 370 437 370 437 370 496 c 2,53,-1
 370 508 l 2,54,55
 370 573 370 573 345 614 c 0,56,57
 329 643 329 643 303 658 c 0,58,59
 281 671 281 671 250 671 c 0,60,61
 218 671 218 671 194 657 c 0,62,63
 169 642 169 642 153 614 c 0,64,65
 130 575 130 575 130 515 c 2,66,-1
 130 496 l 2,67,68
 130 436 130 436 153 396 c 0,69,70
 169 369 169 369 194 354 c 0,71,72
 218 340 218 340 249 340 c 0,47,48
EndSplineSet
EndChar

StartChar: colon
Encoding: 58 58 27
Width: 500
GlyphClass: 2
Flags: W
LayerCount: 2
Fore
SplineSet
250 382 m 256,0,1
 225 382 225 382 207 392 c 0,2,3
 192 401 192 401 182 417 c 0,4,5
 172 435 172 435 172 460 c 128,-1,6
 172 485 172 485 182 503 c 0,7,8
 192 519 192 519 207 528 c 0,9,10
 225 538 225 538 250 538 c 256,11,12
 275 538 275 538 293 528 c 0,13,14
 308 519 308 519 318 503 c 0,15,16
 328 485 328 485 328 460 c 128,-1,17
 328 435 328 435 318 417 c 0,18,19
 308 401 308 401 293 392 c 0,20,21
 275 382 275 382 250 382 c 256,0,1
250 -8 m 256,22,23
 225 -8 225 -8 207 2 c 0,24,25
 192 11 192 11 182 27 c 0,26,27
 172 45 172 45 172 70 c 128,-1,28
 172 95 172 95 182 113 c 0,29,30
 192 129 192 129 207 138 c 0,31,32
 225 148 225 148 250 148 c 256,33,34
 275 148 275 148 293 138 c 0,35,36
 308 129 308 129 318 113 c 0,37,38
 328 95 328 95 328 70 c 128,-1,39
 328 45 328 45 318 27 c 0,40,41
 308 11 308 11 293 2 c 0,42,43
 275 -8 275 -8 250 -8 c 256,22,23
EndSplineSet
EndChar

StartChar: semicolon
Encoding: 59 59 28
Width: 500
GlyphClass: 2
Flags: W
LayerCount: 2
Fore
SplineSet
250 382 m 256,0,1
 225 382 225 382 207 392 c 0,2,3
 192 401 192 401 182 417 c 0,4,5
 172 435 172 435 172 460 c 128,-1,6
 172 485 172 485 182 503 c 0,7,8
 192 519 192 519 207 528 c 0,9,10
 225 538 225 538 250 538 c 256,11,12
 275 538 275 538 293 528 c 0,13,14
 308 519 308 519 318 503 c 0,15,16
 328 485 328 485 328 460 c 128,-1,17
 328 435 328 435 318 417 c 0,18,19
 308 401 308 401 293 392 c 0,20,21
 275 382 275 382 250 382 c 256,0,1
229 -205 m 1,22,-1
 166 -164 l 1,23,24
 183 -140 183 -140 196 -118 c 0,25,26
 228 -63 228 -63 241 -8 c 1,27,28
 222 -6 222 -6 207 2.5 c 128,-1,29
 192 11 192 11 182 27 c 0,30,31
 172 45 172 45 172 70 c 128,-1,32
 172 95 172 95 182 113 c 0,33,34
 192 129 192 129 207 138 c 0,35,36
 225 148 225 148 250 148 c 256,37,38
 275 148 275 148 293 138 c 0,39,40
 308 129 308 129 318 113 c 0,41,42
 327 96 327 96 328 70 c 0,43,44
 328 -41 328 -41 264 -150 c 0,45,46
 249 -177 249 -177 229 -205 c 1,22,-1
EndSplineSet
EndChar

StartChar: less
Encoding: 60 60 29
Width: 500
GlyphClass: 2
Flags: W
AnchorPoint: "Anclaje-5" 434 0 basechar 0
AnchorPoint: "Anclaje-4" 434 530 basechar 0
AnchorPoint: "Anclaje-3" 250 365 basechar 0
AnchorPoint: "Anclaje-2" 250 373 basechar 0
AnchorPoint: "Anclaje-1" 250 162 basechar 0
AnchorPoint: "Anclaje-0" 250 567 basechar 0
LayerCount: 2
Fore
SplineSet
414 121 m 1,0,-1
 66 323 l 1,1,-1
 66 407 l 1,2,-1
 414 609 l 1,3,-1
 454 547 l 1,4,-1
 138 365 l 1,5,-1
 454 183 l 1,6,-1
 414 121 l 1,0,-1
EndSplineSet
EndChar

StartChar: equal
Encoding: 61 61 30
Width: 500
GlyphClass: 2
Flags: W
AnchorPoint: "Anclaje-5" 434 0 basechar 0
AnchorPoint: "Anclaje-4" 434 530 basechar 0
AnchorPoint: "Anclaje-3" 250 365 basechar 0
AnchorPoint: "Anclaje-2" 250 373 basechar 0
AnchorPoint: "Anclaje-1" 250 162 basechar 0
AnchorPoint: "Anclaje-0" 250 567 basechar 0
LayerCount: 2
Fore
SplineSet
66 436 m 1,0,-1
 66 508 l 1,1,-1
 434 508 l 1,2,-1
 434 436 l 1,3,-1
 66 436 l 1,0,-1
66 222 m 1,4,-1
 66 294 l 1,5,-1
 434 294 l 1,6,-1
 434 222 l 1,7,-1
 66 222 l 1,4,-1
EndSplineSet
EndChar

StartChar: greater
Encoding: 62 62 31
Width: 500
GlyphClass: 2
Flags: W
AnchorPoint: "Anclaje-5" 434 0 basechar 0
AnchorPoint: "Anclaje-4" 434 530 basechar 0
AnchorPoint: "Anclaje-3" 250 365 basechar 0
AnchorPoint: "Anclaje-2" 250 373 basechar 0
AnchorPoint: "Anclaje-1" 250 162 basechar 0
AnchorPoint: "Anclaje-0" 250 567 basechar 0
LayerCount: 2
Fore
SplineSet
86 121 m 1,0,-1
 46 183 l 1,1,-1
 362 365 l 1,2,-1
 46 547 l 1,3,-1
 86 609 l 1,4,-1
 434 407 l 1,5,-1
 434 323 l 1,6,-1
 86 121 l 1,0,-1
EndSplineSet
EndChar

StartChar: question
Encoding: 63 63 32
Width: 500
GlyphClass: 2
Flags: W
LayerCount: 2
Fore
SplineSet
290 221 m 1,0,-1
 210 221 l 1,1,2
 210 309 210 309 242 364 c 0,3,4
 256 389 256 389 290 430 c 0,5,6
 320 468 320 468 330 487 c 0,7,8
 354 528 354 528 354 567 c 0,9,10
 354 598 354 598 340 623 c 0,11,12
 328 644 328 644 306 657 c 0,13,14
 281 671 281 671 247 671 c 0,15,16
 210 671 210 671 184 656 c 0,17,18
 163 644 163 644 151.5 624 c 128,-1,19
 140 604 140 604 140 581 c 0,20,21
 140 579 140 579 140 575 c 0,22,23
 140 573 140 573 140 571 c 2,24,-1
 61 580 l 2,25,26
 61 584 61 584 61 587 c 0,27,28
 61 627 61 627 81 660 c 0,29,30
 101 696 101 696 138 717 c 0,31,32
 182 743 182 743 247 743 c 0,33,34
 308 743 308 743 351 718 c 0,35,36
 388 696 388 696 410 659 c 0,37,38
 434 617 434 617 434 565 c 0,39,40
 434 506 434 506 401 449 c 0,41,42
 386 423 386 423 351 380 c 0,43,44
 325 346 325 346 315 328 c 0,45,46
 290 286 290 286 290 221 c 1,0,-1
250 -8 m 256,47,48
 228 -8 228 -8 211 1 c 0,49,50
 197 10 197 10 189 24 c 0,51,52
 179 40 179 40 180 63 c 0,53,54
 179 85 179 85 189 101 c 0,55,56
 197 115 197 115 211 124 c 0,57,58
 228 133 228 133 250 133 c 256,59,60
 272 133 272 133 289 124 c 0,61,62
 303 115 303 115 311 101 c 0,63,64
 320 86 320 86 321 63 c 0,65,66
 320 39 320 39 311 24 c 0,67,68
 303 10 303 10 289 1 c 0,69,70
 272 -8 272 -8 250 -8 c 256,47,48
EndSplineSet
EndChar

StartChar: at
Encoding: 64 64 33
Width: 500
GlyphClass: 2
Flags: W
LayerCount: 2
Fore
SplineSet
326 -102 m 0,0,1
 307 -102 307 -102 294 -95 c 0,2,3
 278 -86 278 -86 267 -66 c 0,4,5
 254 -43 254 -43 248 -11 c 1,6,7
 244 -22 244 -22 239 -31 c 0,8,9
 227 -52 227 -52 210 -62 c 0,10,11
 197 -69 197 -69 177 -69 c 0,12,13
 148 -69 148 -69 124.5 -55.5 c 128,-1,14
 101 -42 101 -42 86 -16 c 0,15,16
 66 19 66 19 66 71 c 2,17,-1
 66 382 l 2,18,19
 66 434 66 434 86 469 c 0,20,21
 101 495 101 495 124.5 508.5 c 128,-1,22
 148 522 148 522 177 522 c 0,23,24
 197 522 197 522 210 514 c 0,25,26
 226 505 226 505 238 486 c 1,27,-1
 245 514 l 1,28,-1
 293 514 l 1,29,-1
 293 38 l 2,30,31
 293 -7 293 -7 309 -24 c 0,32,33
 317 -30 317 -30 325 -30 c 256,34,35
 333 -30 333 -30 338 -25 c 0,36,37
 354 -9 354 -9 354 38 c 2,38,-1
 354 596 l 2,39,40
 354 645 354 645 335 677 c 0,41,42
 321 701 321 701 298.5 714 c 128,-1,43
 276 727 276 727 246 727 c 256,44,45
 216 727 216 727 194 714 c 0,46,47
 171 701 171 701 157 677 c 128,-1,48
 143 653 143 653 139 621 c 1,49,-1
 61 636 l 1,50,51
 66 678 66 678 86 713 c 0,52,53
 110 753 110 753 148 776 c 0,54,55
 189 799 189 799 246 799 c 256,56,57
 303 799 303 799 344 776 c 0,58,59
 383 753 383 753 406 714 c 0,60,61
 434 665 434 665 434 596 c 2,62,-1
 434 38 l 2,63,64
 434 -15 434 -15 414 -50 c 0,65,66
 399 -76 399 -76 376 -89 c 128,-1,67
 353 -102 353 -102 326 -102 c 0,0,1
179 3 m 0,68,69
 189 3 189 3 196 10 c 0,70,71
 213 26 213 26 213 71 c 2,72,-1
 213 382 l 2,73,74
 213 426 213 426 196 443 c 0,75,76
 189 450 189 450 179 450 c 0,77,78
 170 450 170 450 163 443 c 0,79,80
 146 426 146 426 146 382 c 2,81,-1
 146 71 l 2,82,83
 146 26 146 26 163 10 c 0,84,85
 169 4 169 4 176 3 c 0,86,87
 178 3 178 3 179 3 c 0,68,69
EndSplineSet
Substitution2: "'ss05' Estilo 5 lookup 45 subtable" at.ss05
Substitution2: "'ss07' Style Set 7 lookup 44 subtable" at.ss07
Substitution2: "'ss11' Style Set 11 lookup 43 subtable" at.ss11
EndChar

StartChar: A
Encoding: 65 65 34
Width: 500
GlyphClass: 2
Flags: W
AnchorPoint: "Anclaje-6" 398 0 basechar 0
AnchorPoint: "Anclaje-5" 434 0 basechar 0
AnchorPoint: "Anclaje-4" 434 735 basechar 0
AnchorPoint: "Anclaje-3" 250 367 basechar 0
AnchorPoint: "Anclaje-2" 250 382 basechar 0
AnchorPoint: "Anclaje-1" 250 0 basechar 0
AnchorPoint: "Anclaje-0" 250 735 basechar 0
LayerCount: 2
Fore
SplineSet
21 0 m 1,0,-1
 21 72 l 1,1,-1
 66 72 l 1,2,-1
 66 74 l 2,3,4
 66 174 66 174 202 735 c 1,5,-1
 298 735 l 1,6,7
 434 174 434 174 434 74 c 2,8,-1
 434 72 l 1,9,-1
 479 72 l 1,10,-1
 479 0 l 1,11,-1
 309 0 l 1,12,-1
 309 72 l 1,13,-1
 354 72 l 1,14,-1
 354 74 l 2,15,16
 354 107 354 107 339 193 c 1,17,-1
 161 193 l 1,18,19
 146 107 146 107 146 74 c 2,20,-1
 146 72 l 1,21,-1
 191 72 l 1,22,-1
 191 0 l 1,23,-1
 21 0 l 1,0,-1
326 265 m 1,24,25
 300 401 300 401 250 623 c 1,26,27
 200 401 200 401 174 265 c 1,28,-1
 326 265 l 1,24,25
EndSplineSet
EndChar

StartChar: B
Encoding: 66 66 35
Width: 500
GlyphClass: 2
Flags: W
AnchorPoint: "Anclaje-5" 434 0 basechar 0
AnchorPoint: "Anclaje-4" 434 735 basechar 0
AnchorPoint: "Anclaje-3" 250 367 basechar 0
AnchorPoint: "Anclaje-2" 250 382 basechar 0
AnchorPoint: "Anclaje-1" 250 0 basechar 0
AnchorPoint: "Anclaje-0" 250 735 basechar 0
LayerCount: 2
Fore
SplineSet
21 0 m 1,0,-1
 21 72 l 1,1,-1
 66 72 l 1,2,-1
 66 663 l 1,3,-1
 21 663 l 1,4,-1
 21 735 l 1,5,-1
 226 735 l 2,6,7
 287 735 287 735 330 710 c 0,8,9
 369 688 369 688 391 648 c 0,10,11
 417 604 417 604 417 542 c 0,12,13
 417 487 417 487 395 449 c 0,14,15
 373 412 373 412 336 390 c 0,16,17
 331 387 331 387 326 385 c 1,18,19
 344 378 344 378 361 369 c 0,20,21
 404 344 404 344 427 304 c 128,-1,22
 450 264 450 264 450 208 c 0,23,24
 450 145 450 145 423 99 c 0,25,26
 399 56 399 56 354 31 c 0,27,28
 302 0 302 0 226 0 c 2,29,-1
 21 0 l 1,0,-1
146 418 m 1,30,-1
 226 418 l 2,31,32
 259 418 259 418 284 432 c 0,33,34
 306 446 306 446 320 469 c 0,35,36
 337 499 337 499 337 541 c 128,-1,37
 337 583 337 583 320 612 c 0,38,39
 307 636 307 636 284 649 c 0,40,41
 259 663 259 663 226 663 c 2,42,-1
 146 663 l 1,43,-1
 146 418 l 1,30,-1
146 72 m 1,44,-1
 226 72 l 2,45,46
 274 72 274 72 308 92 c 0,47,48
 337 108 337 108 352 136 c 0,49,50
 370 166 370 166 370 209 c 128,-1,51
 370 252 370 252 352 282 c 0,52,53
 336 310 336 310 307 327 c 0,54,55
 274 346 274 346 226 346 c 2,56,-1
 146 346 l 1,57,-1
 146 72 l 1,44,-1
EndSplineSet
EndChar

StartChar: C
Encoding: 67 67 36
Width: 500
GlyphClass: 2
Flags: W
AnchorPoint: "Anclaje-5" 434 0 basechar 0
AnchorPoint: "Anclaje-4" 434 735 basechar 0
AnchorPoint: "Anclaje-3" 250 367 basechar 0
AnchorPoint: "Anclaje-2" 250 382 basechar 0
AnchorPoint: "Anclaje-1" 250 0 basechar 0
AnchorPoint: "Anclaje-0" 250 735 basechar 0
LayerCount: 2
Fore
SplineSet
246 -8 m 0,0,1
 184 -8 184 -8 141 17 c 0,2,3
 101 40 101 40 77 81 c 0,4,5
 50 129 50 129 50 195 c 2,6,-1
 50 540 l 2,7,8
 50 606 50 606 77 654 c 0,9,10
 101 695 101 695 141 718 c 0,11,12
 184 743 184 743 246 743 c 0,13,14
 307 743 307 743 351 718 c 0,15,16
 391 694 391 694 414 654 c 0,17,18
 434 620 434 620 439 580 c 1,19,-1
 361 566 l 1,20,21
 357 594 357 594 344 617 c 0,22,23
 329 643 329 643 305 657 c 0,24,25
 280 671 280 671 246 671 c 256,26,27
 212 671 212 671 187.5 657 c 128,-1,28
 163 643 163 643 148 618 c 0,29,30
 130 585 130 585 130 540 c 2,31,-1
 130 195 l 2,32,33
 130 150 130 150 148 117 c 0,34,35
 163 92 163 92 187.5 78 c 128,-1,36
 212 64 212 64 246 64 c 256,37,38
 280 64 280 64 305 78 c 0,39,40
 329 92 329 92 344 118 c 0,41,42
 357 141 357 141 361 169 c 1,43,-1
 439 155 l 1,44,45
 434 115 434 115 414 81 c 0,46,47
 391 41 391 41 351 17 c 0,48,49
 307 -8 307 -8 246 -8 c 0,0,1
EndSplineSet
EndChar

StartChar: D
Encoding: 68 68 37
Width: 500
GlyphClass: 2
Flags: W
AnchorPoint: "Anclaje-5" 434 0 basechar 0
AnchorPoint: "Anclaje-4" 434 735 basechar 0
AnchorPoint: "Anclaje-3" 250 367 basechar 0
AnchorPoint: "Anclaje-2" 250 382 basechar 0
AnchorPoint: "Anclaje-1" 250 0 basechar 0
AnchorPoint: "Anclaje-0" 250 735 basechar 0
LayerCount: 2
Fore
SplineSet
21 0 m 1,0,-1
 21 72 l 1,1,-1
 66 72 l 1,2,-1
 66 663 l 1,3,-1
 21 663 l 1,4,-1
 21 735 l 1,5,-1
 219 735 l 2,6,7
 286 735 286 735 337 706 c 0,8,9
 384 679 384 679 413 628 c 0,10,11
 450 565 450 565 450 472 c 2,12,-1
 450 263 l 2,13,14
 450 170 450 170 413 107 c 0,15,16
 384 56 384 56 337 29 c 0,17,18
 286 0 286 0 219 0 c 2,19,-1
 21 0 l 1,0,-1
146 72 m 1,20,-1
 219 72 l 2,21,22
 260 72 260 72 291 90 c 128,-1,23
 322 108 322 108 342 143 c 0,24,25
 370 191 370 191 370 263 c 2,26,-1
 370 472 l 2,27,28
 370 544 370 544 342 592 c 0,29,30
 322 627 322 627 291 645 c 128,-1,31
 260 663 260 663 219 663 c 2,32,-1
 146 663 l 1,33,-1
 146 72 l 1,20,-1
EndSplineSet
EndChar

StartChar: E
Encoding: 69 69 38
Width: 500
GlyphClass: 2
Flags: W
AnchorPoint: "Anclaje-5" 434 0 basechar 0
AnchorPoint: "Anclaje-4" 434 735 basechar 0
AnchorPoint: "Anclaje-3" 250 367 basechar 0
AnchorPoint: "Anclaje-2" 250 382 basechar 0
AnchorPoint: "Anclaje-1" 250 0 basechar 0
AnchorPoint: "Anclaje-0" 250 735 basechar 0
LayerCount: 2
Fore
SplineSet
54 0 m 1,0,-1
 54 72 l 1,1,-1
 99 72 l 1,2,-1
 99 663 l 1,3,-1
 54 663 l 1,4,-1
 54 735 l 1,5,-1
 434 735 l 1,6,-1
 434 590 l 1,7,-1
 354 590 l 1,8,-1
 354 663 l 1,9,-1
 179 663 l 1,10,-1
 179 418 l 1,11,-1
 361 418 l 1,12,-1
 361 346 l 1,13,-1
 179 346 l 1,14,-1
 179 72 l 1,15,-1
 354 72 l 1,16,-1
 354 145 l 1,17,-1
 434 145 l 1,18,-1
 434 0 l 1,19,-1
 54 0 l 1,0,-1
EndSplineSet
EndChar

StartChar: F
Encoding: 70 70 39
Width: 500
GlyphClass: 2
Flags: W
AnchorPoint: "Anclaje-5" 434 0 basechar 0
AnchorPoint: "Anclaje-4" 434 735 basechar 0
AnchorPoint: "Anclaje-3" 250 367 basechar 0
AnchorPoint: "Anclaje-2" 250 382 basechar 0
AnchorPoint: "Anclaje-1" 250 0 basechar 0
AnchorPoint: "Anclaje-0" 250 735 basechar 0
LayerCount: 2
Fore
SplineSet
54 0 m 1,0,-1
 54 72 l 1,1,-1
 99 72 l 1,2,-1
 99 663 l 1,3,-1
 54 663 l 1,4,-1
 54 735 l 1,5,-1
 434 735 l 1,6,-1
 434 590 l 1,7,-1
 354 590 l 1,8,-1
 354 663 l 1,9,-1
 179 663 l 1,10,-1
 179 418 l 1,11,-1
 361 418 l 1,12,-1
 361 346 l 1,13,-1
 179 346 l 1,14,-1
 179 72 l 1,15,-1
 224 72 l 1,16,-1
 224 0 l 1,17,-1
 54 0 l 1,0,-1
EndSplineSet
EndChar

StartChar: G
Encoding: 71 71 40
Width: 500
GlyphClass: 2
Flags: W
AnchorPoint: "Anclaje-5" 434 0 basechar 0
AnchorPoint: "Anclaje-4" 434 735 basechar 0
AnchorPoint: "Anclaje-3" 250 367 basechar 0
AnchorPoint: "Anclaje-2" 250 382 basechar 0
AnchorPoint: "Anclaje-1" 250 0 basechar 0
AnchorPoint: "Anclaje-0" 250 735 basechar 0
LayerCount: 2
Fore
SplineSet
249 -8 m 0,0,1
 187 -8 187 -8 141 18 c 0,2,3
 101 42 101 42 77 82 c 0,4,5
 50 129 50 129 50 195 c 2,6,-1
 50 540 l 2,7,8
 50 606 50 606 77 654 c 0,9,10
 101 695 101 695 141 718 c 0,11,12
 184 743 184 743 246 743 c 0,13,14
 307 743 307 743 351 718 c 0,15,16
 391 694 391 694 414 654 c 0,17,18
 434 620 434 620 439 580 c 1,19,-1
 361 566 l 1,20,21
 357 594 357 594 344 617 c 0,22,23
 329 643 329 643 305 657 c 0,24,25
 280 671 280 671 246 671 c 256,26,27
 212 671 212 671 187.5 657 c 128,-1,28
 163 643 163 643 148 618 c 0,29,30
 130 585 130 585 130 540 c 2,31,-1
 130 195 l 2,32,33
 130 150 130 150 148 119 c 0,34,35
 163 93 163 93 188.5 78.5 c 128,-1,36
 214 64 214 64 248 64 c 0,37,38
 278 64 278 64 299 76 c 0,39,40
 321 89 321 89 335 113 c 0,41,42
 354 146 354 146 354 195 c 2,43,-1
 354 328 l 1,44,-1
 250 328 l 1,45,-1
 250 400 l 1,46,-1
 434 400 l 1,47,-1
 434 195 l 2,48,49
 434 125 434 125 406 77 c 0,50,51
 383 37 383 37 345 15 c 0,52,53
 305 -8 305 -8 249 -8 c 0,0,1
EndSplineSet
EndChar

StartChar: H
Encoding: 72 72 41
Width: 500
GlyphClass: 2
Flags: W
AnchorPoint: "Anclaje-5" 434 0 basechar 0
AnchorPoint: "Anclaje-4" 434 735 basechar 0
AnchorPoint: "Anclaje-3" 250 367 basechar 0
AnchorPoint: "Anclaje-2" 250 382 basechar 0
AnchorPoint: "Anclaje-1" 250 0 basechar 0
AnchorPoint: "Anclaje-0" 250 735 basechar 0
LayerCount: 2
Fore
SplineSet
21 0 m 1,0,-1
 21 72 l 1,1,-1
 66 72 l 1,2,-1
 66 663 l 1,3,-1
 21 663 l 1,4,-1
 21 735 l 1,5,-1
 191 735 l 1,6,-1
 191 663 l 1,7,-1
 146 663 l 1,8,-1
 146 422 l 1,9,-1
 354 422 l 1,10,-1
 354 663 l 1,11,-1
 309 663 l 1,12,-1
 309 735 l 1,13,-1
 479 735 l 1,14,-1
 479 663 l 1,15,-1
 434 663 l 1,16,-1
 434 72 l 1,17,-1
 479 72 l 1,18,-1
 479 0 l 1,19,-1
 309 0 l 1,20,-1
 309 72 l 1,21,-1
 354 72 l 1,22,-1
 354 350 l 1,23,-1
 146 350 l 1,24,-1
 146 72 l 1,25,-1
 191 72 l 1,26,-1
 191 0 l 1,27,-1
 21 0 l 1,0,-1
EndSplineSet
EndChar

StartChar: I
Encoding: 73 73 42
Width: 500
GlyphClass: 2
Flags: W
AnchorPoint: "Anclaje-5" 434 0 basechar 0
AnchorPoint: "Anclaje-4" 434 735 basechar 0
AnchorPoint: "Anclaje-3" 250 367 basechar 0
AnchorPoint: "Anclaje-2" 250 382 basechar 0
AnchorPoint: "Anclaje-1" 250 0 basechar 0
AnchorPoint: "Anclaje-0" 250 735 basechar 0
LayerCount: 2
Fore
SplineSet
110 0 m 1,0,-1
 110 72 l 1,1,-1
 210 72 l 1,2,-1
 210 663 l 1,3,-1
 110 663 l 1,4,-1
 110 735 l 1,5,-1
 390 735 l 1,6,-1
 390 663 l 1,7,-1
 290 663 l 1,8,-1
 290 72 l 1,9,-1
 390 72 l 1,10,-1
 390 0 l 1,11,-1
 110 0 l 1,0,-1
EndSplineSet
EndChar

StartChar: J
Encoding: 74 74 43
Width: 500
GlyphClass: 2
Flags: W
AnchorPoint: "Anclaje-5" 434 0 basechar 0
AnchorPoint: "Anclaje-4" 434 735 basechar 0
AnchorPoint: "Anclaje-3" 250 367 basechar 0
AnchorPoint: "Anclaje-2" 349 382 basechar 0
AnchorPoint: "Anclaje-1" 250 0 basechar 0
AnchorPoint: "Anclaje-0" 349 735 basechar 0
LayerCount: 2
Fore
SplineSet
226 -8 m 0,0,1
 171 -8 171 -8 131 15 c 0,2,3
 93 37 93 37 70 77 c 0,4,5
 49 113 49 113 45 155 c 1,6,-1
 123 170 l 1,7,8
 126 138 126 138 141 113 c 0,9,10
 154 89 154 89 176 76.5 c 128,-1,11
 198 64 198 64 226 64 c 256,12,13
 254 64 254 64 274 76 c 0,14,15
 296 88 296 88 310 113 c 0,16,17
 329 146 329 146 329 195 c 2,18,-1
 329 663 l 1,19,-1
 194 663 l 1,20,-1
 194 735 l 1,21,-1
 409 735 l 1,22,-1
 409 195 l 2,23,24
 409 125 409 125 381 76 c 0,25,26
 358 37 358 37 320 15 c 0,27,28
 280 -8 280 -8 226 -8 c 0,0,1
EndSplineSet
EndChar

StartChar: K
Encoding: 75 75 44
Width: 500
GlyphClass: 2
Flags: W
AnchorPoint: "Anclaje-5" 434 0 basechar 0
AnchorPoint: "Anclaje-4" 434 735 basechar 0
AnchorPoint: "Anclaje-3" 250 367 basechar 0
AnchorPoint: "Anclaje-2" 250 382 basechar 0
AnchorPoint: "Anclaje-1" 250 0 basechar 0
AnchorPoint: "Anclaje-0" 250 735 basechar 0
LayerCount: 2
Fore
SplineSet
21 0 m 1,0,-1
 21 72 l 1,1,-1
 66 72 l 1,2,-1
 66 663 l 1,3,-1
 21 663 l 1,4,-1
 21 735 l 1,5,-1
 191 735 l 1,6,-1
 191 663 l 1,7,-1
 146 663 l 1,8,-1
 146 393 l 1,9,10
 252 555 252 555 294 628 c 0,11,12
 342 711 342 711 342 735 c 1,13,-1
 374 735 l 1,14,-1
 479 735 l 1,15,-1
 479 663 l 1,16,-1
 406 663 l 1,17,18
 397 645 397 645 384 623 c 0,19,20
 351 566 351 566 282 458 c 1,21,22
 391 185 391 185 426 72 c 1,23,-1
 479 72 l 1,24,-1
 479 0 l 1,25,-1
 394 0 l 1,26,-1
 362 0 l 1,27,28
 362 50 362 50 229 377 c 1,29,30
 192 320 192 320 146 251 c 1,31,-1
 146 72 l 1,32,-1
 191 72 l 1,33,-1
 191 0 l 1,34,-1
 21 0 l 1,0,-1
EndSplineSet
EndChar

StartChar: L
Encoding: 76 76 45
Width: 500
GlyphClass: 2
Flags: W
AnchorPoint: "Anclaje-5" 434 0 basechar 0
AnchorPoint: "Anclaje-4" 434 735 basechar 0
AnchorPoint: "Anclaje-3" 250 367 basechar 0
AnchorPoint: "Anclaje-2" 250 382 basechar 0
AnchorPoint: "Anclaje-1" 250 0 basechar 0
AnchorPoint: "Anclaje-0" 250 735 basechar 0
LayerCount: 2
Fore
SplineSet
54 0 m 1,0,-1
 54 72 l 1,1,-1
 99 72 l 1,2,-1
 99 663 l 1,3,-1
 54 663 l 1,4,-1
 54 735 l 1,5,-1
 224 735 l 1,6,-1
 224 663 l 1,7,-1
 179 663 l 1,8,-1
 179 72 l 1,9,-1
 370 72 l 1,10,-1
 370 145 l 1,11,-1
 450 145 l 1,12,-1
 450 0 l 1,13,-1
 54 0 l 1,0,-1
EndSplineSet
EndChar

StartChar: M
Encoding: 77 77 46
Width: 500
GlyphClass: 2
Flags: W
AnchorPoint: "Anclaje-5" 434 0 basechar 0
AnchorPoint: "Anclaje-4" 434 735 basechar 0
AnchorPoint: "Anclaje-3" 250 367 basechar 0
AnchorPoint: "Anclaje-2" 250 382 basechar 0
AnchorPoint: "Anclaje-1" 250 0 basechar 0
AnchorPoint: "Anclaje-0" 250 735 basechar 0
LayerCount: 2
Fore
SplineSet
21 0 m 1,0,-1
 21 72 l 1,1,-1
 66 72 l 1,2,-1
 66 663 l 1,3,-1
 21 663 l 1,4,-1
 21 735 l 1,5,-1
 152 735 l 1,6,-1
 250 341 l 1,7,-1
 348 735 l 1,8,-1
 479 735 l 1,9,-1
 479 663 l 1,10,-1
 434 663 l 1,11,-1
 434 72 l 1,12,-1
 479 72 l 1,13,-1
 479 0 l 1,14,-1
 309 0 l 1,15,-1
 309 72 l 1,16,-1
 354 72 l 1,17,-1
 354 147 l 2,18,19
 354 243 354 243 359 351 c 1,20,-1
 360 361 l 2,21,22
 360 371 360 371 361 381 c 2,23,-1
 361 391 l 2,24,25
 362 408 362 408 363 426 c 2,26,-1
 364 436 l 2,27,28
 364 439 364 439 364 441 c 0,29,30
 370 519 370 519 372 595 c 1,31,-1
 280 221 l 1,32,-1
 220 221 l 1,33,-1
 128 595 l 1,34,35
 130 519 130 519 136 440 c 1,36,-1
 136 439 l 2,37,38
 136 437 136 437 136 436 c 2,39,-1
 137 426 l 2,40,41
 138 408 138 408 139 391 c 2,42,-1
 139 381 l 2,43,44
 140 371 140 371 140 361 c 2,45,-1
 141 351 l 1,46,47
 146 243 146 243 146 147 c 2,48,-1
 146 72 l 1,49,-1
 191 72 l 1,50,-1
 191 0 l 1,51,-1
 21 0 l 1,0,-1
EndSplineSet
EndChar

StartChar: N
Encoding: 78 78 47
Width: 500
GlyphClass: 2
Flags: W
AnchorPoint: "Anclaje-5" 434 0 basechar 0
AnchorPoint: "Anclaje-4" 434 735 basechar 0
AnchorPoint: "Anclaje-3" 250 367 basechar 0
AnchorPoint: "Anclaje-2" 250 382 basechar 0
AnchorPoint: "Anclaje-1" 250 0 basechar 0
AnchorPoint: "Anclaje-0" 250 735 basechar 0
LayerCount: 2
Fore
SplineSet
21 0 m 1,0,-1
 21 72 l 1,1,-1
 66 72 l 1,2,-1
 66 663 l 1,3,-1
 21 663 l 1,4,-1
 21 735 l 1,5,-1
 173 735 l 1,6,-1
 359 136 l 2,7,8
 359 139 359 139 359 141 c 0,9,10
 358 156 358 156 358 173 c 2,11,-1
 358 183 l 2,12,13
 358 188 358 188 358 196 c 2,14,-1
 358 198 l 1,15,-1
 357 208 l 2,16,17
 357 217 357 217 357 234 c 0,18,19
 357 237 357 237 357 238 c 2,20,-1
 357 248 l 2,21,22
 356 254 356 254 356 263 c 2,23,-1
 356 273 l 2,24,25
 356 294 356 294 355 312 c 2,26,-1
 355 322 l 2,27,28
 354 389 354 389 354 441 c 2,29,-1
 354 663 l 1,30,-1
 309 663 l 1,31,-1
 309 735 l 1,32,-1
 479 735 l 1,33,-1
 479 663 l 1,34,-1
 434 663 l 1,35,-1
 434 0 l 1,36,-1
 327 0 l 1,37,-1
 141 598 l 1,38,39
 142 542 142 542 144 449 c 2,40,-1
 144 439 l 2,41,42
 144 434 144 434 144 430 c 2,43,-1
 145 420 l 2,44,45
 145 413 145 413 145 405 c 2,46,-1
 145 396 l 1,47,-1
 145 386 l 2,48,49
 145 385 145 385 145 383 c 0,50,51
 145 372 145 372 146 362 c 2,52,-1
 146 352 l 2,53,54
 146 347 146 347 146 342 c 2,55,-1
 146 333 l 2,56,57
 146 318 146 318 146 304 c 2,58,-1
 146 294 l 1,59,-1
 146 72 l 1,60,-1
 191 72 l 1,61,-1
 191 0 l 1,62,-1
 21 0 l 1,0,-1
EndSplineSet
EndChar

StartChar: O
Encoding: 79 79 48
Width: 500
GlyphClass: 2
Flags: W
AnchorPoint: "Anclaje-5" 434 0 basechar 0
AnchorPoint: "Anclaje-4" 434 735 basechar 0
AnchorPoint: "Anclaje-3" 250 367 basechar 0
AnchorPoint: "Anclaje-2" 250 382 basechar 0
AnchorPoint: "Anclaje-1" 250 0 basechar 0
AnchorPoint: "Anclaje-0" 250 735 basechar 0
LayerCount: 2
Fore
SplineSet
250 -8 m 0,0,1
 243 -8 243 -8 236 -8 c 0,2,3
 182 -5 182 -5 141.5 18.5 c 128,-1,4
 101 42 101 42 77 82 c 0,5,6
 50 129 50 129 50 195 c 2,7,-1
 50 540 l 2,8,9
 50 606 50 606 77 653 c 0,10,11
 101 693 101 693 141 717 c 0,12,13
 187 743 187 743 250 743 c 256,14,15
 313 743 313 743 359 717 c 0,16,17
 399 693 399 693 423 653 c 0,18,19
 450 606 450 606 450 540 c 2,20,-1
 450 195 l 2,21,22
 450 129 450 129 423 82 c 0,23,24
 399 42 399 42 359 18 c 0,25,26
 313 -8 313 -8 250 -8 c 0,0,1
250 64 m 256,27,28
 286 64 286 64 311.5 78.5 c 128,-1,29
 337 93 337 93 352 119 c 0,30,31
 370 150 370 150 370 195 c 2,32,-1
 370 540 l 2,33,34
 370 585 370 585 352 616 c 0,35,36
 337 642 337 642 311.5 656.5 c 128,-1,37
 286 671 286 671 250 671 c 256,38,39
 214 671 214 671 188.5 656.5 c 128,-1,40
 163 642 163 642 148 616 c 0,41,42
 130 585 130 585 130 540 c 2,43,-1
 130 195 l 2,44,45
 130 150 130 150 148 119 c 0,46,47
 163 93 163 93 188.5 78.5 c 128,-1,48
 214 64 214 64 250 64 c 256,27,28
EndSplineSet
EndChar

StartChar: P
Encoding: 80 80 49
Width: 500
GlyphClass: 2
Flags: W
AnchorPoint: "Anclaje-5" 434 0 basechar 0
AnchorPoint: "Anclaje-4" 434 735 basechar 0
AnchorPoint: "Anclaje-3" 250 367 basechar 0
AnchorPoint: "Anclaje-2" 250 382 basechar 0
AnchorPoint: "Anclaje-1" 250 0 basechar 0
AnchorPoint: "Anclaje-0" 250 735 basechar 0
LayerCount: 2
Fore
SplineSet
37 0 m 1,0,-1
 37 72 l 1,1,-1
 83 72 l 1,2,-1
 83 663 l 1,3,-1
 37 663 l 1,4,-1
 37 735 l 1,5,-1
 245 735 l 2,6,7
 310 735 310 735 356 708 c 0,8,9
 398 684 398 684 422 642 c 0,10,11
 450 594 450 594 450 525.5 c 128,-1,12
 450 457 450 457 422 408 c 0,13,14
 398 366 398 366 356 342 c 0,15,16
 310 315 310 315 245 315 c 2,17,-1
 162 315 l 1,18,-1
 162 72 l 1,19,-1
 207 72 l 1,20,-1
 207 0 l 1,21,-1
 37 0 l 1,0,-1
245 387 m 2,22,23
 282 387 282 387 310 403 c 0,24,25
 335 418 335 418 351 445 c 0,26,27
 370 478 370 478 370 525.5 c 128,-1,28
 370 573 370 573 351 605 c 0,29,30
 335 632 335 632 310 647 c 0,31,32
 282 663 282 663 245 663 c 2,33,-1
 162 663 l 1,34,-1
 162 387 l 1,35,-1
 245 387 l 2,22,23
EndSplineSet
EndChar

StartChar: Q
Encoding: 81 81 50
Width: 500
GlyphClass: 2
Flags: W
AnchorPoint: "Anclaje-5" 434 0 basechar 0
AnchorPoint: "Anclaje-4" 434 735 basechar 0
AnchorPoint: "Anclaje-3" 250 367 basechar 0
AnchorPoint: "Anclaje-2" 250 382 basechar 0
AnchorPoint: "Anclaje-1" 250 0 basechar 0
AnchorPoint: "Anclaje-0" 250 735 basechar 0
LayerCount: 2
Fore
SplineSet
377 -155 m 2,0,1
 323 -155 323 -155 285 -133 c 0,2,3
 253 -115 253 -115 234 -83 c 0,4,5
 215 -50 215 -50 214 -6 c 1,6,7
 173 0 173 0 141 18 c 0,8,9
 101 42 101 42 77 82 c 0,10,11
 50 129 50 129 50 195 c 2,12,-1
 50 540 l 2,13,14
 50 606 50 606 77 653 c 0,15,16
 101 693 101 693 141 717 c 0,17,18
 187 743 187 743 250 743 c 256,19,20
 313 743 313 743 359 717 c 0,21,22
 399 693 399 693 423 653 c 0,23,24
 450 606 450 606 450 540 c 2,25,-1
 450 195 l 2,26,27
 450 129 450 129 423 82 c 0,28,29
 399 42 399 42 359 18 c 0,30,31
 330 2 330 2 294 -4 c 1,32,33
 295 -28 295 -28 305 -45 c 128,-1,34
 315 -62 315 -62 331 -72 c 0,35,36
 351 -83 351 -83 377 -83 c 2,37,-1
 420 -83 l 1,38,-1
 420 -155 l 1,39,-1
 377 -155 l 2,0,1
250 64 m 256,40,41
 286 64 286 64 311.5 78.5 c 128,-1,42
 337 93 337 93 352 119 c 0,43,44
 370 150 370 150 370 195 c 2,45,-1
 370 540 l 2,46,47
 370 585 370 585 352 616 c 0,48,49
 337 642 337 642 311.5 656.5 c 128,-1,50
 286 671 286 671 250 671 c 256,51,52
 214 671 214 671 188.5 656.5 c 128,-1,53
 163 642 163 642 148 616 c 0,54,55
 130 585 130 585 130 540 c 2,56,-1
 130 195 l 2,57,58
 130 150 130 150 148 119 c 0,59,60
 163 93 163 93 188.5 78.5 c 128,-1,61
 214 64 214 64 250 64 c 256,40,41
EndSplineSet
Substitution2: "Single Substitution lookup 25 subtable" Q.cv43
Substitution2: "'ss11' Style Set 11 lookup 24 subtable" Q.ss11
EndChar

StartChar: R
Encoding: 82 82 51
Width: 500
GlyphClass: 2
Flags: W
AnchorPoint: "Anclaje-5" 434 0 basechar 0
AnchorPoint: "Anclaje-4" 434 735 basechar 0
AnchorPoint: "Anclaje-3" 250 367 basechar 0
AnchorPoint: "Anclaje-2" 145 353 basechar 0
AnchorPoint: "Anclaje-1" 250 0 basechar 0
AnchorPoint: "Anclaje-0" 250 735 basechar 0
LayerCount: 2
Fore
SplineSet
21 0 m 1,0,-1
 21 72 l 1,1,-1
 66 72 l 1,2,-1
 66 663 l 1,3,-1
 21 663 l 1,4,-1
 21 735 l 1,5,-1
 251 735 l 2,6,7
 314 735 314 735 359 709 c 0,8,9
 399 686 399 686 423 645 c 0,10,11
 450 598 450 598 450 531.5 c 128,-1,12
 450 465 450 465 423 418 c 0,13,14
 399 377 399 377 359 354 c 0,15,16
 337 341 337 341 310 335 c 1,17,18
 396 172 396 172 421 72 c 1,19,-1
 479 72 l 1,20,-1
 479 0 l 1,21,-1
 383 0 l 1,22,-1
 351 0 l 1,23,24
 352 100 352 100 225 328 c 1,25,-1
 146 328 l 1,26,-1
 146 72 l 1,27,-1
 191 72 l 1,28,-1
 191 0 l 1,29,-1
 21 0 l 1,0,-1
146 400 m 1,30,-1
 251 400 l 2,31,32
 286 400 286 400 313 415 c 0,33,34
 337 429 337 429 352 455 c 0,35,36
 370 486 370 486 370 531.5 c 128,-1,37
 370 577 370 577 352 608 c 0,38,39
 337 634 337 634 313 648 c 0,40,41
 286 663 286 663 251 663 c 2,42,-1
 146 663 l 1,43,-1
 146 400 l 1,30,-1
EndSplineSet
EndChar

StartChar: S
Encoding: 83 83 52
Width: 500
GlyphClass: 2
Flags: W
AnchorPoint: "Anclaje-5" 434 0 basechar 0
AnchorPoint: "Anclaje-4" 434 735 basechar 0
AnchorPoint: "Anclaje-3" 250 367 basechar 0
AnchorPoint: "Anclaje-2" 250 382 basechar 0
AnchorPoint: "Anclaje-1" 250 0 basechar 0
AnchorPoint: "Anclaje-0" 250 735 basechar 0
LayerCount: 2
Fore
SplineSet
247 -8 m 256,0,1
 188 -8 188 -8 145 16 c 0,2,3
 107 38 107 38 85 77 c 0,4,5
 65 113 65 113 61 155 c 1,6,-1
 140 166 l 1,7,8
 142 137 142 137 155.5 113.5 c 128,-1,9
 169 90 169 90 192 77 c 128,-1,10
 215 64 215 64 247 64 c 0,11,12
 280 64 280 64 303 77 c 128,-1,13
 326 90 326 90 338 113 c 0,14,15
 354 140 354 140 354 174 c 128,-1,16
 354 208 354 208 336 241 c 0,17,18
 311 283 311 283 234 330 c 0,19,20
 129 394 129 394 95 452 c 0,21,22
 66 504 66 504 66 559 c 128,-1,23
 66 614 66 614 92 658 c 0,24,25
 113 697 113 697 152 719 c 0,26,27
 194 743 194 743 253 743 c 256,28,29
 312 743 312 743 355 719 c 0,30,31
 393 697 393 697 415 658 c 0,32,33
 435 622 435 622 439 580 c 1,34,-1
 360 569 l 1,35,36
 358 598 358 598 344.5 621.5 c 128,-1,37
 331 645 331 645 308 658 c 128,-1,38
 285 671 285 671 253 671 c 0,39,40
 220 671 220 671 197 658 c 128,-1,41
 174 645 174 645 162 622 c 0,42,43
 146 595 146 595 146 561 c 128,-1,44
 146 527 146 527 164 494 c 0,45,46
 189 452 189 452 266 405 c 0,47,48
 371 341 371 341 405 283 c 0,49,50
 434 231 434 231 434 176 c 128,-1,51
 434 121 434 121 408 77 c 0,52,53
 387 38 387 38 348 16 c 0,54,55
 306 -8 306 -8 247 -8 c 256,0,1
EndSplineSet
EndChar

StartChar: T
Encoding: 84 84 53
Width: 500
GlyphClass: 2
Flags: W
AnchorPoint: "Anclaje-5" 289 0 basechar 0
AnchorPoint: "Anclaje-4" 434 735 basechar 0
AnchorPoint: "Anclaje-3" 250 367 basechar 0
AnchorPoint: "Anclaje-2" 250 382 basechar 0
AnchorPoint: "Anclaje-1" 250 0 basechar 0
AnchorPoint: "Anclaje-0" 250 735 basechar 0
LayerCount: 2
Fore
SplineSet
145 0 m 1,0,-1
 145 72 l 1,1,-1
 210 72 l 1,2,-1
 210 663 l 1,3,-1
 138 663 l 1,4,-1
 138 590 l 1,5,-1
 58 590 l 1,6,-1
 58 735 l 1,7,-1
 442 735 l 1,8,-1
 442 590 l 1,9,-1
 362 590 l 1,10,-1
 362 663 l 1,11,-1
 290 663 l 1,12,-1
 290 72 l 1,13,-1
 355 72 l 1,14,-1
 355 0 l 1,15,-1
 145 0 l 1,0,-1
EndSplineSet
EndChar

StartChar: U
Encoding: 85 85 54
Width: 500
GlyphClass: 2
Flags: W
AnchorPoint: "Anclaje-5" 434 0 basechar 0
AnchorPoint: "Anclaje-4" 434 735 basechar 0
AnchorPoint: "Anclaje-3" 250 367 basechar 0
AnchorPoint: "Anclaje-2" 250 382 basechar 0
AnchorPoint: "Anclaje-1" 250 0 basechar 0
AnchorPoint: "Anclaje-0" 250 735 basechar 0
LayerCount: 2
Fore
SplineSet
250 -8 m 256,0,1
 195 -8 195 -8 155 15 c 0,2,3
 117 37 117 37 94 77 c 0,4,5
 66 125 66 125 66 195 c 2,6,-1
 66 663 l 1,7,-1
 21 663 l 1,8,-1
 21 735 l 1,9,-1
 191 735 l 1,10,-1
 191 663 l 1,11,-1
 146 663 l 1,12,-1
 146 195 l 2,13,14
 146 146 146 146 165 113 c 0,15,16
 179 89 179 89 201 76 c 0,17,18
 222 64 222 64 250 64 c 256,19,20
 278 64 278 64 299 76 c 0,21,22
 321 89 321 89 335 113 c 0,23,24
 354 146 354 146 354 195 c 2,25,-1
 354 663 l 1,26,-1
 309 663 l 1,27,-1
 309 735 l 1,28,-1
 479 735 l 1,29,-1
 479 663 l 1,30,-1
 434 663 l 1,31,-1
 434 195 l 2,32,33
 434 125 434 125 406 77 c 0,34,35
 383 37 383 37 345 15 c 0,36,37
 305 -8 305 -8 250 -8 c 256,0,1
EndSplineSet
EndChar

StartChar: V
Encoding: 86 86 55
Width: 500
GlyphClass: 2
Flags: W
AnchorPoint: "Anclaje-5" 434 0 basechar 0
AnchorPoint: "Anclaje-4" 434 735 basechar 0
AnchorPoint: "Anclaje-3" 250 367 basechar 0
AnchorPoint: "Anclaje-2" 250 382 basechar 0
AnchorPoint: "Anclaje-1" 250 0 basechar 0
AnchorPoint: "Anclaje-0" 250 735 basechar 0
LayerCount: 2
Fore
SplineSet
202 0 m 1,0,1
 66 561 66 561 66 662 c 2,2,-1
 66 663 l 1,3,-1
 21 663 l 1,4,-1
 21 735 l 1,5,-1
 191 735 l 1,6,-1
 191 663 l 1,7,-1
 146 663 l 1,8,-1
 146 662 l 2,9,10
 146 573 146 573 250 112 c 1,11,12
 354 573 354 573 354 662 c 2,13,-1
 354 663 l 1,14,-1
 309 663 l 1,15,-1
 309 735 l 1,16,-1
 479 735 l 1,17,-1
 479 663 l 1,18,-1
 434 663 l 1,19,-1
 434 662 l 2,20,21
 434 561 434 561 298 0 c 1,22,-1
 202 0 l 1,0,1
EndSplineSet
EndChar

StartChar: W
Encoding: 87 87 56
Width: 500
GlyphClass: 2
Flags: W
AnchorPoint: "Anclaje-5" 434 0 basechar 0
AnchorPoint: "Anclaje-4" 434 735 basechar 0
AnchorPoint: "Anclaje-3" 250 367 basechar 0
AnchorPoint: "Anclaje-2" 250 382 basechar 0
AnchorPoint: "Anclaje-1" 250 0 basechar 0
AnchorPoint: "Anclaje-0" 250 735 basechar 0
LayerCount: 2
Fore
SplineSet
138 0 m 1,0,1
 66 384 66 384 66 551 c 2,2,-1
 66 663 l 1,3,-1
 21 663 l 1,4,-1
 21 735 l 1,5,-1
 191 735 l 1,6,-1
 191 663 l 1,7,-1
 146 663 l 1,8,-1
 146 551 l 2,9,10
 146 416 146 416 166 145 c 1,11,-1
 225 441 l 1,12,-1
 275 441 l 1,13,-1
 334 145 l 1,14,15
 354 416 354 416 354 551 c 2,16,-1
 354 663 l 1,17,-1
 309 663 l 1,18,-1
 309 735 l 1,19,-1
 479 735 l 1,20,-1
 479 663 l 1,21,-1
 434 663 l 1,22,-1
 434 551 l 2,23,24
 434 384 434 384 362 0 c 1,25,-1
 313 0 l 1,26,-1
 250 316 l 1,27,-1
 187 0 l 1,28,-1
 138 0 l 1,0,1
EndSplineSet
EndChar

StartChar: X
Encoding: 88 88 57
Width: 500
GlyphClass: 2
Flags: W
AnchorPoint: "Anclaje-5" 434 0 basechar 0
AnchorPoint: "Anclaje-4" 434 735 basechar 0
AnchorPoint: "Anclaje-3" 250 367 basechar 0
AnchorPoint: "Anclaje-2" 250 382 basechar 0
AnchorPoint: "Anclaje-1" 250 0 basechar 0
AnchorPoint: "Anclaje-0" 250 735 basechar 0
LayerCount: 2
Fore
SplineSet
21 0 m 1,0,-1
 21 72 l 1,1,-1
 68 72 l 1,2,3
 77 156 77 156 129 243 c 2,4,-1
 205 368 l 1,5,-1
 129 492 l 2,6,7
 77 579 77 579 68 663 c 1,8,-1
 21 663 l 1,9,-1
 21 735 l 1,10,-1
 191 735 l 1,11,-1
 191 663 l 1,12,-1
 148 663 l 1,13,14
 157 597 157 597 198 529 c 2,15,-1
 250 443 l 1,16,-1
 302 529 l 2,17,18
 343 597 343 597 352 663 c 1,19,-1
 309 663 l 1,20,-1
 309 735 l 1,21,-1
 479 735 l 1,22,-1
 479 663 l 1,23,-1
 432 663 l 1,24,25
 423 579 423 579 371 492 c 2,26,-1
 295 368 l 1,27,-1
 371 243 l 2,28,29
 423 156 423 156 432 72 c 1,30,-1
 479 72 l 1,31,-1
 479 0 l 1,32,-1
 309 0 l 1,33,-1
 309 72 l 1,34,-1
 352 72 l 1,35,36
 343 138 343 138 302 206 c 2,37,-1
 250 292 l 1,38,-1
 198 206 l 2,39,40
 157 138 157 138 148 72 c 1,41,-1
 191 72 l 1,42,-1
 191 0 l 1,43,-1
 21 0 l 1,0,-1
EndSplineSet
EndChar

StartChar: Y
Encoding: 89 89 58
Width: 500
GlyphClass: 2
Flags: W
AnchorPoint: "Anclaje-5" 434 0 basechar 0
AnchorPoint: "Anclaje-4" 434 735 basechar 0
AnchorPoint: "Anclaje-3" 250 367 basechar 0
AnchorPoint: "Anclaje-2" 250 294 basechar 0
AnchorPoint: "Anclaje-1" 250 0 basechar 0
AnchorPoint: "Anclaje-0" 250 735 basechar 0
LayerCount: 2
Fore
SplineSet
165 0 m 1,0,-1
 165 72 l 1,1,-1
 210 72 l 1,2,-1
 210 286 l 1,3,-1
 128 449 l 2,4,5
 73 558 73 558 67 663 c 1,6,-1
 21 663 l 1,7,-1
 21 735 l 1,8,-1
 191 735 l 1,9,-1
 191 663 l 1,10,-1
 147 663 l 1,11,12
 153 573 153 573 199 482 c 2,13,-1
 250 381 l 1,14,-1
 301 482 l 2,15,16
 347 573 347 573 353 663 c 1,17,-1
 309 663 l 1,18,-1
 309 735 l 1,19,-1
 479 735 l 1,20,-1
 479 663 l 1,21,-1
 433 663 l 1,22,23
 427 558 427 558 372 449 c 2,24,-1
 290 286 l 1,25,-1
 290 72 l 1,26,-1
 335 72 l 1,27,-1
 335 0 l 1,28,-1
 165 0 l 1,0,-1
EndSplineSet
EndChar

StartChar: Z
Encoding: 90 90 59
Width: 500
GlyphClass: 2
Flags: W
AnchorPoint: "Anclaje-5" 434 0 basechar 0
AnchorPoint: "Anclaje-4" 434 735 basechar 0
AnchorPoint: "Anclaje-3" 250 367 basechar 0
AnchorPoint: "Anclaje-2" 250 382 basechar 0
AnchorPoint: "Anclaje-1" 250 0 basechar 0
AnchorPoint: "Anclaje-0" 250 735 basechar 0
LayerCount: 2
Fore
SplineSet
66 0 m 1,0,-1
 66 72 l 1,1,-1
 342 663 l 1,2,-1
 146 663 l 1,3,-1
 146 590 l 1,4,-1
 66 590 l 1,5,-1
 66 735 l 1,6,-1
 434 735 l 1,7,-1
 434 663 l 1,8,-1
 158 72 l 1,9,-1
 354 72 l 1,10,-1
 354 145 l 1,11,-1
 434 145 l 1,12,-1
 434 0 l 1,13,-1
 66 0 l 1,0,-1
EndSplineSet
EndChar

StartChar: bracketleft
Encoding: 91 91 60
Width: 500
GlyphClass: 2
Flags: W
LayerCount: 2
Fore
SplineSet
103 -168 m 1,0,-1
 103 898 l 1,1,-1
 416 898 l 1,2,-1
 416 826 l 1,3,-1
 183 826 l 1,4,-1
 183 -96 l 1,5,-1
 416 -96 l 1,6,-1
 416 -168 l 1,7,-1
 103 -168 l 1,0,-1
EndSplineSet
EndChar

StartChar: backslash
Encoding: 92 92 61
Width: 500
GlyphClass: 2
Flags: W
LayerCount: 2
Fore
SplineSet
357 -168 m 1,0,-1
 61 898 l 1,1,-1
 143 898 l 1,2,-1
 439 -168 l 1,3,-1
 357 -168 l 1,0,-1
EndSplineSet
EndChar

StartChar: bracketright
Encoding: 93 93 62
Width: 500
GlyphClass: 2
Flags: W
LayerCount: 2
Fore
SplineSet
84 -168 m 1,0,-1
 84 -96 l 1,1,-1
 317 -96 l 1,2,-1
 317 826 l 1,3,-1
 84 826 l 1,4,-1
 84 898 l 1,5,-1
 397 898 l 1,6,-1
 397 -168 l 1,7,-1
 84 -168 l 1,0,-1
EndSplineSet
EndChar

StartChar: asciicircum
Encoding: 94 94 63
Width: 500
GlyphClass: 2
Flags: W
LayerCount: 2
Fore
SplineSet
125 542 m 1,0,-1
 58 588 l 1,1,-1
 208 775 l 1,2,-1
 292 775 l 1,3,-1
 442 588 l 1,4,-1
 375 542 l 1,5,-1
 250 717 l 1,6,-1
 125 542 l 1,0,-1
EndSplineSet
Substitution2: "Single Substitution lookup 57 subtable" asciicircum.cv30
Substitution2: "'ss11' Style Set 11 lookup 56 subtable" asciicircum.ss11
EndChar

StartChar: underscore
Encoding: 95 95 64
Width: 500
GlyphClass: 2
Flags: W
LayerCount: 2
Fore
SplineSet
66 0 m 1,0,-1
 66 72 l 1,1,-1
 434 72 l 1,2,-1
 434 0 l 1,3,-1
 66 0 l 1,0,-1
EndSplineSet
Substitution2: "'ss10' Style Set 10 lookup 53 subtable" underscore.ss10
Substitution2: "'ss11' Style Set 11 lookup 52 subtable" underscore.ss11
EndChar

StartChar: grave
Encoding: 96 96 65
Width: 500
GlyphClass: 2
Flags: W
LayerCount: 2
Fore
SplineSet
271 540 m 1,0,-1
 94 731 l 1,1,-1
 160 783 l 1,2,-1
 326 583 l 1,3,-1
 271 540 l 1,0,-1
EndSplineSet
EndChar

StartChar: a
Encoding: 97 97 66
Width: 500
GlyphClass: 2
Flags: W
AnchorPoint: "Anclaje-6" 398 0 basechar 0
AnchorPoint: "Anclaje-5" 434 0 basechar 0
AnchorPoint: "Anclaje-4" 434 530 basechar 0
AnchorPoint: "Anclaje-3" 250 265 basechar 0
AnchorPoint: "Anclaje-2" 250 275 basechar 0
AnchorPoint: "Anclaje-1" 250 0 basechar 0
AnchorPoint: "Anclaje-0" 250 530 basechar 0
LayerCount: 2
Fore
SplineSet
202 -8 m 0,0,1
 154 -8 154 -8 121 11 c 0,2,3
 90 29 90 29 71 61 c 0,4,5
 50 98 50 98 50 149 c 0,6,7
 50 194 50 194 69 227 c 0,8,9
 89 263 89 263 129 285 c 0,10,11
 184 317 184 317 268 317 c 2,12,-1
 354 317 l 1,13,-1
 354 363 l 2,14,15
 354 395 354 395 341 419 c 0,16,17
 328 440 328 440 307 452 c 0,18,19
 283 466 283 466 247 466 c 0,20,21
 210 466 210 466 185 451 c 0,22,23
 164 439 164 439 153 419 c 0,24,25
 143 402 143 402 141 383 c 1,26,-1
 64 400 l 1,27,28
 67 428 67 428 82 456 c 0,29,30
 103 492 103 492 138 512 c 0,31,32
 183 538 183 538 247 538 c 0,33,34
 310 538 310 538 354 513 c 0,35,36
 390 492 390 492 412 456 c 0,37,38
 434 416 434 416 434 363 c 2,39,-1
 434 72 l 1,40,-1
 479 72 l 1,41,-1
 479 0 l 1,42,-1
 354 0 l 1,43,-1
 354 75 l 1,44,45
 331 36 331 36 294 15 c 0,46,47
 254 -8 254 -8 202 -8 c 0,0,1
227 64 m 0,48,49
 266 64 266 64 294 81 c 0,50,51
 320 96 320 96 336 123 c 0,52,53
 353 152 353 152 354 193 c 2,54,-1
 354 198 l 1,55,-1
 354 245 l 1,56,-1
 268 245 l 2,57,58
 211 245 211 245 175 224 c 0,59,60
 152 211 152 211 140 191 c 0,61,62
 130 173 130 173 130 149 c 0,63,64
 130 124 130 124 141 106 c 0,65,66
 151 88 151 88 170 77 c 0,67,68
 192 64 192 64 227 64 c 0,48,49
EndSplineSet
Substitution2: "'ss11' Style Set 11 lookup 18 subtable" a.ss11
Substitution2: "'ss07' Style Set 7 lookup 17 subtable" a.ss07
EndChar

StartChar: b
Encoding: 98 98 67
Width: 500
GlyphClass: 2
Flags: W
AnchorPoint: "Anclaje-5" 434 0 basechar 0
AnchorPoint: "Anclaje-4" 434 735 basechar 0
AnchorPoint: "Anclaje-3" 250 367 basechar 0
AnchorPoint: "Anclaje-2" 250 382 basechar 0
AnchorPoint: "Anclaje-1" 250 0 basechar 0
AnchorPoint: "Anclaje-0" 250 735 basechar 0
LayerCount: 2
Fore
SplineSet
277 -8 m 0,0,1
 236 -8 236 -8 207 9 c 0,2,3
 173 28 173 28 151 67 c 0,4,5
 148 72 148 72 146 76 c 2,6,-1
 146 0 l 1,7,-1
 21 0 l 1,8,-1
 21 72 l 1,9,-1
 66 72 l 1,10,-1
 66 663 l 1,11,-1
 21 663 l 1,12,-1
 21 735 l 1,13,-1
 146 735 l 1,14,-1
 146 454 l 2,15,16
 148 458 148 458 151 463 c 0,17,18
 173 502 173 502 207 521 c 0,19,20
 236 538 236 538 277 538 c 0,21,22
 321 538 321 538 356 518 c 0,23,24
 393 497 393 497 417 456 c 0,25,26
 450 397 450 397 450 310 c 2,27,-1
 450 220 l 2,28,29
 450 133 450 133 417 74 c 0,30,31
 393 33 393 33 356 12 c 0,32,33
 321 -8 321 -8 277 -8 c 0,0,1
251 64 m 0,34,35
 282 64 282 64 306 78 c 0,36,37
 331 93 331 93 347 121 c 0,38,39
 370 160 370 160 370 220 c 2,40,-1
 370 310 l 2,41,42
 370 370 370 370 347 409 c 0,43,44
 331 437 331 437 306 452 c 0,45,46
 282 466 282 466 251 466 c 0,47,48
 226 466 226 466 206 455 c 0,49,50
 184 442 184 442 170 417 c 0,51,52
 146 376 146 376 146 310 c 2,53,-1
 146 220 l 2,54,55
 146 154 146 154 170 113 c 0,56,57
 184 88 184 88 206 75 c 0,58,59
 226 64 226 64 251 64 c 0,34,35
EndSplineSet
EndChar

StartChar: c
Encoding: 99 99 68
Width: 500
GlyphClass: 2
Flags: W
AnchorPoint: "Anclaje-5" 434 0 basechar 0
AnchorPoint: "Anclaje-4" 434 530 basechar 0
AnchorPoint: "Anclaje-3" 250 265 basechar 0
AnchorPoint: "Anclaje-2" 250 275 basechar 0
AnchorPoint: "Anclaje-1" 250 0 basechar 0
AnchorPoint: "Anclaje-0" 250 530 basechar 0
LayerCount: 2
Fore
SplineSet
247 -8 m 0,0,1
 191 -8 191 -8 148 16 c 0,2,3
 107 40 107 40 82 83 c 0,4,5
 50 139 50 139 50 220 c 2,6,-1
 50 310 l 2,7,8
 50 391 50 391 82 447 c 0,9,10
 107 490 107 490 148 514 c 0,11,12
 191 538 191 538 247 538 c 0,13,14
 305 538 305 538 346 514 c 128,-1,15
 387 490 387 490 413 446 c 0,16,17
 432 413 432 413 439 375 c 1,18,-1
 363 352 l 1,19,20
 358 384 358 384 343 410 c 0,21,22
 327 438 327 438 302 453 c 0,23,24
 278 466 278 466 247 466 c 0,25,26
 217 466 217 466 194 453 c 0,27,28
 169 438 169 438 153 411 c 0,29,30
 130 371 130 371 130 310 c 2,31,-1
 130 220 l 2,32,33
 130 159 130 159 153 119 c 0,34,35
 169 92 169 92 194 77 c 0,36,37
 217 64 217 64 247 64 c 0,38,39
 278 64 278 64 302 77 c 0,40,41
 327 92 327 92 343 120 c 0,42,43
 358 146 358 146 363 178 c 1,44,-1
 439 155 l 1,45,46
 432 117 432 117 413 84 c 0,47,48
 387 40 387 40 346 16 c 128,-1,49
 305 -8 305 -8 247 -8 c 0,0,1
EndSplineSet
EndChar

StartChar: d
Encoding: 100 100 69
Width: 500
GlyphClass: 2
Flags: W
AnchorPoint: "Anclaje-5" 434 0 basechar 0
AnchorPoint: "Anclaje-4" 434 735 basechar 0
AnchorPoint: "Anclaje-3" 250 367 basechar 0
AnchorPoint: "Anclaje-2" 250 382 basechar 0
AnchorPoint: "Anclaje-1" 250 0 basechar 0
AnchorPoint: "Anclaje-0" 250 735 basechar 0
LayerCount: 2
Fore
SplineSet
223 -8 m 0,0,1
 179 -8 179 -8 144 12 c 0,2,3
 107 33 107 33 83 74 c 0,4,5
 50 133 50 133 50 220 c 2,6,-1
 50 310 l 2,7,8
 50 397 50 397 83 456 c 0,9,10
 107 497 107 497 144 518 c 0,11,12
 179 538 179 538 223 538 c 0,13,14
 264 538 264 538 293 521 c 0,15,16
 327 502 327 502 349 463 c 0,17,18
 352 458 352 458 354 454 c 2,19,-1
 354 663 l 1,20,-1
 309 663 l 1,21,-1
 309 735 l 1,22,-1
 434 735 l 1,23,-1
 434 72 l 1,24,-1
 479 72 l 1,25,-1
 479 0 l 1,26,-1
 354 0 l 1,27,-1
 354 76 l 2,28,29
 352 72 352 72 349 67 c 0,30,31
 327 28 327 28 293 9 c 0,32,33
 264 -8 264 -8 223 -8 c 0,0,1
249 64 m 0,34,35
 274 64 274 64 294 75 c 0,36,37
 316 88 316 88 330 113 c 0,38,39
 354 154 354 154 354 220 c 2,40,-1
 354 310 l 2,41,42
 354 376 354 376 330 417 c 0,43,44
 316 442 316 442 294 455 c 0,45,46
 274 466 274 466 249 466 c 0,47,48
 218 466 218 466 194 452 c 0,49,50
 169 437 169 437 153 409 c 0,51,52
 130 370 130 370 130 310 c 2,53,-1
 130 220 l 2,54,55
 130 160 130 160 153 121 c 0,56,57
 169 93 169 93 194 78 c 0,58,59
 218 64 218 64 249 64 c 0,34,35
EndSplineSet
EndChar

StartChar: e
Encoding: 101 101 70
Width: 500
GlyphClass: 2
Flags: W
AnchorPoint: "Anclaje-5" 434 0 basechar 0
AnchorPoint: "Anclaje-4" 434 530 basechar 0
AnchorPoint: "Anclaje-3" 250 265 basechar 0
AnchorPoint: "Anclaje-2" 250 275 basechar 0
AnchorPoint: "Anclaje-1" 250 0 basechar 0
AnchorPoint: "Anclaje-0" 250 530 basechar 0
LayerCount: 2
Fore
SplineSet
255 -8 m 0,0,1
 235 -8 235 -8 216 -5 c 0,2,3
 179 1 179 1 150 18 c 0,4,5
 107 42 107 42 82 86 c 0,6,7
 50 141 50 141 50 220 c 2,8,-1
 50 310 l 2,9,10
 50 390 50 390 82 445 c 0,11,12
 107 489 107 489 149.5 513.5 c 128,-1,13
 192 538 192 538 250 538 c 256,14,15
 308 538 308 538 350.5 513.5 c 128,-1,16
 393 489 393 489 418 445 c 0,17,18
 450 390 450 390 450 310 c 2,19,-1
 450 229 l 1,20,-1
 130 229 l 1,21,-1
 130 220 l 2,22,23
 130 161 130 161 153 123 c 0,24,25
 169 94 169 94 195 79 c 128,-1,26
 221 64 221 64 255 64 c 0,27,28
 290 64 290 64 315 79 c 0,29,30
 342 94 342 94 359 123 c 0,31,32
 368 140 368 140 374 159 c 1,33,-1
 447 130 l 1,34,35
 440 107 440 107 428 87 c 0,36,37
 402 42 402 42 360 18 c 0,38,39
 315 -8 315 -8 255 -8 c 0,0,1
130 301 m 1,40,-1
 370 301 l 1,41,-1
 370 310 l 2,42,43
 370 370 370 370 347 409 c 0,44,45
 331 437 331 437 306 452 c 0,46,47
 282 466 282 466 250 466 c 256,48,49
 218 466 218 466 194 452 c 0,50,51
 169 437 169 437 153 409 c 0,52,53
 130 370 130 370 130 310 c 2,54,-1
 130 301 l 1,40,-1
EndSplineSet
EndChar

StartChar: f
Encoding: 102 102 71
Width: 500
GlyphClass: 2
Flags: W
AnchorPoint: "Anclaje-5" 434 0 basechar 0
AnchorPoint: "Anclaje-4" 434 735 basechar 0
AnchorPoint: "Anclaje-3" 250 367 basechar 0
AnchorPoint: "Anclaje-2" 250 382 basechar 0
AnchorPoint: "Anclaje-1" 250 0 basechar 0
AnchorPoint: "Anclaje-0" 250 735 basechar 0
LayerCount: 2
Fore
SplineSet
73 0 m 1,0,-1
 73 72 l 1,1,-1
 175 72 l 1,2,-1
 175 428 l 1,3,-1
 66 428 l 1,4,-1
 66 500 l 1,5,-1
 175 500 l 1,6,-1
 175 595 l 2,7,8
 175 652 175 652 198 692 c 0,9,10
 216 723 216 723 246 741 c 0,11,12
 277 759 277 759 320 759 c 0,13,14
 362 759 362 759 394 741 c 0,15,16
 424 723 424 723 442 692 c 0,17,18
 457 666 457 666 462 635 c 1,19,-1
 385 616 l 1,20,21
 382 639 382 639 372 656 c 0,22,23
 363 672 363 672 349 680 c 0,24,25
 336 687 336 687 320 687 c 256,26,27
 304 687 304 687 291 680 c 0,28,29
 277 672 277 672 269 656 c 0,30,31
 255 632 255 632 255 595 c 2,32,-1
 255 500 l 1,33,-1
 416 500 l 1,34,-1
 416 428 l 1,35,-1
 255 428 l 1,36,-1
 255 72 l 1,37,-1
 388 72 l 1,38,-1
 388 0 l 1,39,-1
 73 0 l 1,0,-1
EndSplineSet
Substitution2: "Single Substitution lookup 29 subtable" f.cv53
Substitution2: "'ss11' Style Set 11 lookup 28 subtable" f.ss11
EndChar

StartChar: g
Encoding: 103 103 72
Width: 500
GlyphClass: 2
Flags: W
AnchorPoint: "Anclaje-5" 434 -205 basechar 0
AnchorPoint: "Anclaje-4" 434 530 basechar 0
AnchorPoint: "Anclaje-3" 250 162 basechar 0
AnchorPoint: "Anclaje-2" 250 -54 basechar 0
AnchorPoint: "Anclaje-1" 250 -205 basechar 0
AnchorPoint: "Anclaje-0" 250 530 basechar 0
LayerCount: 2
Fore
SplineSet
250 -213 m 0,0,1
 172 -213 172 -213 119 -183 c 0,2,3
 80 -160 80 -160 60 -125 c 0,4,5
 40 -91 40 -91 40 -45 c 0,6,7
 40 -3 40 -3 58 27 c 0,8,9
 73 54 73 54 102 73 c 1,10,11
 95 81 95 81 90 90 c 0,12,13
 77 113 77 113 77 140 c 0,14,15
 77 168 77 168 92 194 c 0,16,17
 101 210 101 210 115 223 c 1,18,19
 89 242 89 242 72 271 c 0,20,21
 50 309 50 309 50 362 c 128,-1,22
 50 415 50 415 72 454 c 0,23,24
 93 491 93 491 131 512 c 0,25,26
 176 538 176 538 240 538 c 0,27,28
 274 538 274 538 302 531 c 2,29,-1
 306 530 l 1,30,-1
 467 530 l 1,31,-1
 467 458 l 1,32,-1
 404 460 l 2,33,34
 406 457 406 457 408 454 c 0,35,36
 430 415 430 415 430 362 c 128,-1,37
 430 309 430 309 408 271 c 0,38,39
 387 234 387 234 349 213 c 0,40,41
 305 187 305 187 240 187 c 0,42,43
 203 187 203 187 173 195 c 1,44,45
 167 191 167 191 162 187 c 0,46,47
 149 172 149 172 148 154 c 0,48,49
 149 136 149 136 162 123 c 0,50,51
 178 106 178 106 220 105 c 0,52,53
 223 105 223 105 226 105 c 2,54,-1
 274 105 l 2,55,56
 344 105 344 105 392 77 c 0,57,58
 426 58 426 58 443.5 27 c 128,-1,59
 461 -4 461 -4 462 -46 c 0,60,61
 461 -90 461 -90 442 -125 c 0,62,63
 421 -160 421 -160 382 -182 c 0,64,65
 330 -213 330 -213 250 -213 c 0,0,1
250 -141 m 0,66,67
 303 -141 303 -141 336 -121 c 0,68,69
 359 -108 359 -108 371 -88 c 0,70,71
 381 -70 381 -70 382 -47 c 0,72,73
 381 -25 381 -25 373 -10 c 0,74,75
 363 6 363 6 345 17 c 0,76,77
 317 33 317 33 274 33 c 2,78,-1
 226 33 l 1,79,-1
 224 33 l 1,80,-1
 221 33 l 2,81,82
 183 33 183 33 157 17 c 0,83,84
 138 6 138 6 129 -10 c 0,85,86
 120 -25 120 -25 120 -45 c 0,87,88
 120 -70 120 -70 131 -88 c 0,89,90
 143 -109 143 -109 166 -122 c 0,91,92
 199 -141 199 -141 250 -141 c 0,66,67
240 259 m 0,93,94
 277 259 277 259 303 274 c 0,95,96
 325 286 325 286 337 307 c 0,97,98
 350 331 350 331 350 362.5 c 128,-1,99
 350 394 350 394 337 417 c 0,100,101
 325 438 325 438 303 450.5 c 128,-1,102
 281 463 281 463 252 466 c 2,103,-1
 240 466 l 2,104,105
 204 466 204 466 177 451 c 0,106,107
 156 438 156 438 143 417 c 0,108,109
 130 394 130 394 130 362.5 c 128,-1,110
 130 331 130 331 143 307 c 0,111,112
 156 286 156 286 177 274 c 0,113,114
 204 259 204 259 240 259 c 0,93,94
EndSplineSet
Substitution2: "'ss05' Estilo 5 lookup 23 subtable" g.ss05
Substitution2: "'ss09' Style Set 9 lookup 22 subtable" g.ss09
Substitution2: "'ss11' Style Set 11 lookup 21 subtable" g.ss11
EndChar

StartChar: h
Encoding: 104 104 73
Width: 500
GlyphClass: 2
Flags: W
AnchorPoint: "Anclaje-5" 434 0 basechar 0
AnchorPoint: "Anclaje-4" 434 735 basechar 0
AnchorPoint: "Anclaje-3" 250 367 basechar 0
AnchorPoint: "Anclaje-2" 250 382 basechar 0
AnchorPoint: "Anclaje-1" 250 0 basechar 0
AnchorPoint: "Anclaje-0" 250 735 basechar 0
LayerCount: 2
Fore
SplineSet
21 0 m 1,0,-1
 21 72 l 1,1,-1
 66 72 l 1,2,-1
 66 663 l 1,3,-1
 21 663 l 1,4,-1
 21 735 l 1,5,-1
 146 735 l 1,6,-1
 146 454 l 2,7,8
 148 458 148 458 151 463 c 0,9,10
 173 502 173 502 207 521 c 0,11,12
 236 538 236 538 275 538 c 256,13,14
 314 538 314 538 344 521 c 0,15,16
 377 502 377 502 400 463 c 0,17,18
 434 403 434 403 434 310 c 2,19,-1
 434 72 l 1,20,-1
 479 72 l 1,21,-1
 479 0 l 1,22,-1
 309 0 l 1,23,-1
 309 72 l 1,24,-1
 354 72 l 1,25,-1
 354 310 l 2,26,27
 354 376 354 376 330 417 c 0,28,29
 316 442 316 442 294 455 c 0,30,31
 274 466 274 466 250 466 c 256,32,33
 226 466 226 466 206 455 c 0,34,35
 184 442 184 442 170 417 c 0,36,37
 146 376 146 376 146 310 c 2,38,-1
 146 72 l 1,39,-1
 191 72 l 1,40,-1
 191 0 l 1,41,-1
 21 0 l 1,0,-1
EndSplineSet
EndChar

StartChar: i
Encoding: 105 105 74
Width: 500
GlyphClass: 2
Flags: W
AnchorPoint: "Anclaje-5" 434 0 basechar 0
AnchorPoint: "Anclaje-4" 434 530 basechar 0
AnchorPoint: "Anclaje-3" 250 265 basechar 0
AnchorPoint: "Anclaje-2" 250 275 basechar 0
AnchorPoint: "Anclaje-1" 250 0 basechar 0
AnchorPoint: "Anclaje-0" 250 743 basechar 0
LayerCount: 2
Fore
SplineSet
250 623 m 256,0,1
 230 623 230 623 216.5 630.5 c 128,-1,2
 203 638 203 638 196 651 c 0,3,4
 187 665 187 665 188 685 c 0,5,6
 187 705 187 705 196 719 c 0,7,8
 203 732 203 732 216.5 740 c 128,-1,9
 230 748 230 748 250 748 c 256,10,11
 270 748 270 748 283.5 740 c 128,-1,12
 297 732 297 732 304 719 c 0,13,14
 312 706 312 706 313 685 c 0,15,16
 312 664 312 664 304 651 c 0,17,18
 297 638 297 638 283.5 630.5 c 128,-1,19
 270 623 270 623 250 623 c 256,0,1
75 0 m 1,20,-1
 75 72 l 1,21,-1
 217 72 l 1,22,-1
 217 458 l 1,23,-1
 89 458 l 1,24,-1
 89 530 l 1,25,-1
 297 530 l 1,26,-1
 297 72 l 1,27,-1
 425 72 l 1,28,-1
 425 0 l 1,29,-1
 75 0 l 1,20,-1
EndSplineSet
Substitution2: "'cv04' Character Variants 04 lookup 10 subtable" i.cv04
Substitution2: "'ss11' Style Set 11 lookup 9 subtable" i.ss11
Substitution2: "'ss07' Style Set 7 lookup 8 subtable" i.ss07
Substitution2: "'ss10' Style Set 10 lookup 7 subtable" i.ss10
Substitution2: "Single Substitution lookup 0 subtable" dotlessi
EndChar

StartChar: j
Encoding: 106 106 75
Width: 500
GlyphClass: 2
Flags: W
AnchorPoint: "Anclaje-5" 434 -205 basechar 0
AnchorPoint: "Anclaje-4" 434 530 basechar 0
AnchorPoint: "Anclaje-3" 250 162 basechar 0
AnchorPoint: "Anclaje-2" 299 265 basechar 0
AnchorPoint: "Anclaje-1" 250 -205 basechar 0
AnchorPoint: "Anclaje-0" 299 743 basechar 0
LayerCount: 2
Fore
SplineSet
300 623 m 0,0,1
 280 623 280 623 265 631 c 0,2,3
 253 638 253 638 245 651 c 0,4,5
 237 665 237 665 237 685 c 128,-1,6
 237 705 237 705 245 719 c 0,7,8
 253 732 253 732 265 739 c 0,9,10
 280 748 280 748 300 748 c 0,11,12
 320 747 320 747 334 739 c 0,13,14
 347 732 347 732 354 719 c 0,15,16
 362 705 362 705 362 685 c 128,-1,17
 362 665 362 665 354 651 c 0,18,19
 347 638 347 638 334 631 c 0,20,21
 320 622 320 622 300 623 c 0,0,1
180 -213 m 256,22,23
 131 -213 131 -213 95 -192 c 128,-1,24
 59 -171 59 -171 36 -133 c 0,25,26
 20 -104 20 -104 13 -70 c 1,27,-1
 89 -46 l 1,28,29
 93 -74 93 -74 106 -96.5 c 128,-1,30
 119 -119 119 -119 139 -131 c 0,31,32
 157 -141 157 -141 180 -141 c 256,33,34
 203 -141 203 -141 221 -131 c 0,35,36
 241 -119 241 -119 253 -97 c 0,37,38
 273 -63 273 -63 273 -10 c 2,39,-1
 273 458 l 1,40,-1
 138 458 l 1,41,-1
 138 530 l 1,42,-1
 353 530 l 1,43,-1
 353 -10 l 2,44,45
 353 -83 353 -83 324 -133 c 0,46,47
 302 -171 302 -171 265.5 -192 c 128,-1,48
 229 -213 229 -213 180 -213 c 256,22,23
EndSplineSet
Substitution2: "Single Substitution lookup 0 subtable" uni0237
EndChar

StartChar: k
Encoding: 107 107 76
Width: 500
GlyphClass: 2
Flags: W
AnchorPoint: "Anclaje-5" 434 0 basechar 0
AnchorPoint: "Anclaje-4" 434 735 basechar 0
AnchorPoint: "Anclaje-3" 250 367 basechar 0
AnchorPoint: "Anclaje-2" 250 382 basechar 0
AnchorPoint: "Anclaje-1" 250 0 basechar 0
AnchorPoint: "Anclaje-0" 250 735 basechar 0
LayerCount: 2
Fore
SplineSet
21 0 m 1,0,-1
 21 72 l 1,1,-1
 66 72 l 1,2,-1
 66 663 l 1,3,-1
 21 663 l 1,4,-1
 21 735 l 1,5,-1
 146 735 l 1,6,-1
 146 292 l 1,7,8
 310 468 310 468 338 516 c 0,9,10
 342 524 342 524 342 530 c 1,11,-1
 374 530 l 1,12,-1
 479 530 l 1,13,-1
 479 458 l 1,14,-1
 389 458 l 1,15,16
 351 410 351 410 282 332 c 1,17,18
 379 157 379 157 417 72 c 1,19,-1
 479 72 l 1,20,-1
 479 0 l 1,21,-1
 394 0 l 1,22,-1
 362 0 l 1,23,24
 362 36 362 36 228 271 c 1,25,26
 190 229 190 229 146 181 c 1,27,-1
 146 72 l 1,28,-1
 191 72 l 1,29,-1
 191 0 l 1,30,-1
 21 0 l 1,0,-1
EndSplineSet
EndChar

StartChar: l
Encoding: 108 108 77
Width: 500
GlyphClass: 2
Flags: W
AnchorPoint: "Anclaje-5" 434 0 basechar 0
AnchorPoint: "Anclaje-4" 434 735 basechar 0
AnchorPoint: "Anclaje-3" 250 367 basechar 0
AnchorPoint: "Anclaje-2" 253 382 basechar 0
AnchorPoint: "Anclaje-1" 250 0 basechar 0
AnchorPoint: "Anclaje-0" 250 735 basechar 0
LayerCount: 2
Fore
SplineSet
75 0 m 1,0,-1
 75 72 l 1,1,-1
 217 72 l 1,2,-1
 217 663 l 1,3,-1
 89 663 l 1,4,-1
 89 735 l 1,5,-1
 297 735 l 1,6,-1
 297 72 l 1,7,-1
 425 72 l 1,8,-1
 425 0 l 1,9,-1
 75 0 l 1,0,-1
EndSplineSet
Substitution2: "Single Substitution lookup 16 subtable" l.cv28
Substitution2: "Single Substitution lookup 15 subtable" l.cv27
Substitution2: "'ss09' Style Set 9 lookup 14 subtable" l.ss09
Substitution2: "'ss11' Style Set 11 lookup 13 subtable" l.ss11
Substitution2: "'ss07' Style Set 7 lookup 12 subtable" l.ss07
Substitution2: "'ss10' Style Set 10 lookup 11 subtable" l.ss10
EndChar

StartChar: m
Encoding: 109 109 78
Width: 500
GlyphClass: 2
Flags: W
AnchorPoint: "Anclaje-5" 434 0 basechar 0
AnchorPoint: "Anclaje-4" 434 530 basechar 0
AnchorPoint: "Anclaje-3" 250 265 basechar 0
AnchorPoint: "Anclaje-2" 250 275 basechar 0
AnchorPoint: "Anclaje-1" 250 0 basechar 0
AnchorPoint: "Anclaje-0" 250 530 basechar 0
LayerCount: 2
Fore
SplineSet
21 0 m 1,0,-1
 21 72 l 1,1,-1
 58 72 l 1,2,-1
 58 458 l 1,3,-1
 21 458 l 1,4,-1
 21 530 l 1,5,-1
 138 530 l 1,6,-1
 138 499 l 1,7,8
 151 520 151 520 168 530 c 0,9,10
 181 538 181 538 199 538 c 0,11,12
 218 538 218 538 233 529 c 0,13,14
 251 519 251 519 265 496 c 0,15,16
 272 484 272 484 277 470 c 1,17,18
 282 485 282 485 289 497 c 0,19,20
 302 520 302 520 320 530 c 0,21,22
 333 538 333 538 351 538 c 0,23,24
 370 538 370 538 385 529 c 0,25,26
 403 519 403 519 417 496 c 0,27,28
 442 451 442 451 442 376 c 2,29,-1
 442 72 l 1,30,-1
 479 72 l 1,31,-1
 479 0 l 1,32,-1
 362 0 l 1,33,-1
 362 376 l 2,34,35
 362 439 362 439 342 459 c 0,36,37
 335 466 335 466 326 466 c 256,38,39
 317 466 317 466 310 459 c 0,40,41
 292 441 292 441 290 389 c 2,42,-1
 290 377 l 1,43,-1
 290 376 l 1,44,-1
 290 0 l 1,45,-1
 210 0 l 1,46,-1
 210 376 l 2,47,48
 210 439 210 439 190 459 c 0,49,50
 183 466 183 466 174 466 c 256,51,52
 165 466 165 466 158 459 c 0,53,54
 138 439 138 439 138 376 c 2,55,-1
 138 0 l 1,56,-1
 21 0 l 1,0,-1
EndSplineSet
Substitution2: "Single Substitution lookup 27 subtable" m.cv26
Substitution2: "'ss11' Style Set 11 lookup 26 subtable" m.ss11
EndChar

StartChar: n
Encoding: 110 110 79
Width: 500
GlyphClass: 2
Flags: W
AnchorPoint: "Anclaje-5" 434 0 basechar 0
AnchorPoint: "Anclaje-4" 434 530 basechar 0
AnchorPoint: "Anclaje-3" 250 265 basechar 0
AnchorPoint: "Anclaje-2" 250 275 basechar 0
AnchorPoint: "Anclaje-1" 250 0 basechar 0
AnchorPoint: "Anclaje-0" 250 530 basechar 0
LayerCount: 2
Fore
SplineSet
21 0 m 1,0,-1
 21 72 l 1,1,-1
 66 72 l 1,2,-1
 66 458 l 1,3,-1
 21 458 l 1,4,-1
 21 530 l 1,5,-1
 146 530 l 1,6,-1
 146 454 l 2,7,8
 148 458 148 458 151 463 c 0,9,10
 173 502 173 502 207 521 c 0,11,12
 236 538 236 538 275 538 c 256,13,14
 314 538 314 538 344 521 c 0,15,16
 377 502 377 502 400 463 c 0,17,18
 434 403 434 403 434 310 c 2,19,-1
 434 72 l 1,20,-1
 479 72 l 1,21,-1
 479 0 l 1,22,-1
 309 0 l 1,23,-1
 309 72 l 1,24,-1
 354 72 l 1,25,-1
 354 310 l 2,26,27
 354 376 354 376 330 417 c 0,28,29
 316 442 316 442 294 455 c 0,30,31
 274 466 274 466 250 466 c 256,32,33
 226 466 226 466 206 455 c 0,34,35
 184 442 184 442 170 417 c 0,36,37
 146 376 146 376 146 310 c 2,38,-1
 146 72 l 1,39,-1
 191 72 l 1,40,-1
 191 0 l 1,41,-1
 21 0 l 1,0,-1
EndSplineSet
EndChar

StartChar: o
Encoding: 111 111 80
Width: 500
GlyphClass: 2
Flags: W
AnchorPoint: "Anclaje-5" 434 0 basechar 0
AnchorPoint: "Anclaje-4" 434 530 basechar 0
AnchorPoint: "Anclaje-3" 250 265 basechar 0
AnchorPoint: "Anclaje-2" 250 275 basechar 0
AnchorPoint: "Anclaje-1" 250 0 basechar 0
AnchorPoint: "Anclaje-0" 250 530 basechar 0
LayerCount: 2
Fore
SplineSet
250 -8 m 256,0,1
 192 -8 192 -8 149.5 16.5 c 128,-1,2
 107 41 107 41 82 85 c 0,3,4
 50 140 50 140 50 220 c 2,5,-1
 50 310 l 2,6,7
 50 390 50 390 82 445 c 0,8,9
 107 489 107 489 149.5 513.5 c 128,-1,10
 192 538 192 538 250 538 c 256,11,12
 308 538 308 538 350.5 513.5 c 128,-1,13
 393 489 393 489 418 445 c 0,14,15
 450 390 450 390 450 310 c 2,16,-1
 450 220 l 2,17,18
 450 140 450 140 418 85 c 0,19,20
 393 41 393 41 350.5 16.5 c 128,-1,21
 308 -8 308 -8 250 -8 c 256,0,1
250 64 m 256,22,23
 282 64 282 64 306 78 c 0,24,25
 331 93 331 93 347 121 c 0,26,27
 370 160 370 160 370 220 c 2,28,-1
 370 310 l 2,29,30
 370 370 370 370 347 409 c 0,31,32
 331 437 331 437 306 452 c 0,33,34
 282 466 282 466 250 466 c 256,35,36
 218 466 218 466 194 452 c 0,37,38
 169 437 169 437 153 409 c 0,39,40
 130 370 130 370 130 310 c 2,41,-1
 130 220 l 2,42,43
 130 160 130 160 153 121 c 0,44,45
 169 93 169 93 194 78 c 0,46,47
 218 64 218 64 250 64 c 256,22,23
EndSplineSet
EndChar

StartChar: p
Encoding: 112 112 81
Width: 500
GlyphClass: 2
Flags: W
AnchorPoint: "Anclaje-5" 434 -205 basechar 0
AnchorPoint: "Anclaje-4" 434 530 basechar 0
AnchorPoint: "Anclaje-3" 250 162 basechar 0
AnchorPoint: "Anclaje-2" 250 177 basechar 0
AnchorPoint: "Anclaje-1" 250 -205 basechar 0
AnchorPoint: "Anclaje-0" 250 530 basechar 0
LayerCount: 2
Fore
SplineSet
21 -205 m 1,0,-1
 21 -133 l 1,1,-1
 66 -133 l 1,2,-1
 66 458 l 1,3,-1
 21 458 l 1,4,-1
 21 530 l 1,5,-1
 146 530 l 1,6,-1
 146 454 l 2,7,8
 148 458 148 458 151 463 c 0,9,10
 173 502 173 502 207 521 c 0,11,12
 236 538 236 538 277 538 c 0,13,14
 321 538 321 538 356 518 c 0,15,16
 393 497 393 497 417 456 c 0,17,18
 450 397 450 397 450 310 c 2,19,-1
 450 220 l 2,20,21
 450 133 450 133 417 74 c 0,22,23
 393 33 393 33 356 12 c 0,24,25
 321 -8 321 -8 277 -8 c 0,26,27
 236 -8 236 -8 207 9 c 0,28,29
 173 28 173 28 151 67 c 0,30,31
 148 72 148 72 146 76 c 2,32,-1
 146 -133 l 1,33,-1
 191 -133 l 1,34,-1
 191 -205 l 1,35,-1
 21 -205 l 1,0,-1
251 64 m 0,36,37
 282 64 282 64 306 78 c 0,38,39
 331 93 331 93 347 121 c 0,40,41
 370 160 370 160 370 220 c 2,42,-1
 370 310 l 2,43,44
 370 370 370 370 347 409 c 0,45,46
 331 437 331 437 306 452 c 0,47,48
 282 466 282 466 251 466 c 0,49,50
 226 466 226 466 206 455 c 0,51,52
 184 442 184 442 170 417 c 0,53,54
 146 376 146 376 146 310 c 2,55,-1
 146 220 l 2,56,57
 146 154 146 154 170 113 c 0,58,59
 184 88 184 88 206 75 c 0,60,61
 226 64 226 64 251 64 c 0,36,37
EndSplineSet
EndChar

StartChar: q
Encoding: 113 113 82
Width: 500
GlyphClass: 2
Flags: W
AnchorPoint: "Anclaje-5" 434 -205 basechar 0
AnchorPoint: "Anclaje-4" 434 530 basechar 0
AnchorPoint: "Anclaje-3" 250 162 basechar 0
AnchorPoint: "Anclaje-2" 250 177 basechar 0
AnchorPoint: "Anclaje-1" 250 -205 basechar 0
AnchorPoint: "Anclaje-0" 250 530 basechar 0
LayerCount: 2
Fore
SplineSet
309 -205 m 1,0,-1
 309 -133 l 1,1,-1
 354 -133 l 1,2,-1
 354 76 l 2,3,4
 352 72 352 72 349 67 c 0,5,6
 327 28 327 28 293 9 c 0,7,8
 264 -8 264 -8 223 -8 c 0,9,10
 179 -8 179 -8 144 12 c 0,11,12
 107 33 107 33 83 74 c 0,13,14
 50 133 50 133 50 220 c 2,15,-1
 50 310 l 2,16,17
 50 397 50 397 83 456 c 0,18,19
 107 497 107 497 144 518 c 0,20,21
 179 538 179 538 223 538 c 0,22,23
 264 538 264 538 293 521 c 0,24,25
 327 502 327 502 349 463 c 0,26,27
 352 458 352 458 354 454 c 2,28,-1
 354 530 l 1,29,-1
 479 530 l 1,30,-1
 479 458 l 1,31,-1
 434 458 l 1,32,-1
 434 -133 l 1,33,-1
 479 -133 l 1,34,-1
 479 -205 l 1,35,-1
 309 -205 l 1,0,-1
249 64 m 0,36,37
 274 64 274 64 294 75 c 0,38,39
 316 88 316 88 330 113 c 0,40,41
 354 154 354 154 354 220 c 2,42,-1
 354 310 l 2,43,44
 354 376 354 376 330 417 c 0,45,46
 316 442 316 442 294 455 c 0,47,48
 274 466 274 466 249 466 c 0,49,50
 218 466 218 466 194 452 c 0,51,52
 169 437 169 437 153 409 c 0,53,54
 130 370 130 370 130 310 c 2,55,-1
 130 220 l 2,56,57
 130 160 130 160 153 121 c 0,58,59
 169 93 169 93 194 78 c 0,60,61
 218 64 218 64 249 64 c 0,36,37
EndSplineSet
EndChar

StartChar: r
Encoding: 114 114 83
Width: 500
GlyphClass: 2
Flags: W
AnchorPoint: "Anclaje-5" 434 0 basechar 0
AnchorPoint: "Anclaje-4" 434 530 basechar 0
AnchorPoint: "Anclaje-3" 250 265 basechar 0
AnchorPoint: "Anclaje-2" 187 265 basechar 0
AnchorPoint: "Anclaje-1" 250 0 basechar 0
AnchorPoint: "Anclaje-0" 250 530 basechar 0
LayerCount: 2
Fore
SplineSet
63 0 m 1,0,-1
 63 72 l 1,1,-1
 126 72 l 1,2,-1
 126 458 l 1,3,-1
 63 458 l 1,4,-1
 63 530 l 1,5,-1
 206 530 l 1,6,-1
 206 429 l 1,7,8
 214 451 214 451 224 468 c 0,9,10
 246 506 246 506 276 524 c 0,11,12
 301 538 301 538 332 538 c 0,13,14
 366 538 366 538 396 520.5 c 128,-1,15
 426 503 426 503 443 473 c 0,16,17
 452 458 452 458 457 440 c 1,18,-1
 382 406 l 1,19,20
 379 417 379 417 373 430 c 0,21,22
 361 449 361 449 345 458 c 0,23,24
 331 466 331 466 315 466 c 0,25,26
 291 466 291 466 273 456 c 0,27,28
 251 443 251 443 235 415 c 0,29,30
 206 365 206 365 206 281 c 2,31,-1
 206 72 l 1,32,-1
 311 72 l 1,33,-1
 311 0 l 1,34,-1
 63 0 l 1,0,-1
EndSplineSet
EndChar

StartChar: s
Encoding: 115 115 84
Width: 500
GlyphClass: 2
Flags: W
AnchorPoint: "Anclaje-5" 434 0 basechar 0
AnchorPoint: "Anclaje-4" 434 530 basechar 0
AnchorPoint: "Anclaje-3" 250 265 basechar 0
AnchorPoint: "Anclaje-2" 250 275 basechar 0
AnchorPoint: "Anclaje-1" 250 0 basechar 0
AnchorPoint: "Anclaje-0" 250 530 basechar 0
LayerCount: 2
Fore
SplineSet
249 -8 m 0,0,1
 182 -8 182 -8 137 18 c 0,2,3
 100 39 100 39 80 76 c 0,4,5
 70 91 70 91 65 110 c 1,6,-1
 141 133 l 1,7,8
 143 123 143 123 149 113 c 0,9,10
 162 91 162 91 183 79 c 0,11,12
 209 64 209 64 249 64 c 0,13,14
 292 64 292 64 320 80 c 0,15,16
 339 91 339 91 347 106 c 0,17,18
 356 121 356 121 356 140.5 c 128,-1,19
 356 160 356 160 346 176 c 0,20,21
 336 194 336 194 316 206 c 0,22,23
 293 219 293 219 240 226 c 0,24,25
 173 235 173 235 141 254 c 0,26,27
 105 275 105 275 84.5 310.5 c 128,-1,28
 64 346 64 346 64 390 c 0,29,30
 64 430 64 430 81 460 c 0,31,32
 100 491 100 491 134 511 c 0,33,34
 180 538 180 538 251 538 c 0,35,36
 318 538 318 538 363 512 c 0,37,38
 400 491 400 491 420 454 c 0,39,40
 430 439 430 439 435 420 c 1,41,-1
 359 397 l 1,42,43
 357 407 357 407 351 417 c 0,44,45
 338 439 338 439 317 451 c 0,46,47
 291 466 291 466 251 466 c 0,48,49
 208 466 208 466 180 450 c 0,50,51
 161 439 161 439 153 424 c 0,52,53
 144 409 144 409 144 389.5 c 128,-1,54
 144 370 144 370 154 354 c 0,55,56
 164 336 164 336 184 324 c 0,57,58
 207 311 207 311 260 304 c 0,59,60
 327 295 327 295 359 276 c 0,61,62
 395 255 395 255 415.5 219.5 c 128,-1,63
 436 184 436 184 436 140 c 0,64,65
 436 100 436 100 419 70 c 0,66,67
 400 39 400 39 366 19 c 0,68,69
 320 -8 320 -8 249 -8 c 0,0,1
EndSplineSet
EndChar

StartChar: t
Encoding: 116 116 85
Width: 500
GlyphClass: 2
Flags: W
AnchorPoint: "Anclaje-5" 479 155 basechar 0
AnchorPoint: "Anclaje-4" 434 735 basechar 0
AnchorPoint: "Anclaje-3" 250 367 basechar 0
AnchorPoint: "Anclaje-2" 250 382 basechar 0
AnchorPoint: "Anclaje-1" 299 0 basechar 0
AnchorPoint: "Anclaje-0" 250 735 basechar 0
LayerCount: 2
Fore
SplineSet
320 -8 m 0,0,1
 276 -8 276 -8 243 11 c 128,-1,2
 210 30 210 30 188 67 c 0,3,4
 160 116 160 116 160 189 c 2,5,-1
 160 458 l 1,6,-1
 51 458 l 1,7,-1
 51 530 l 1,8,-1
 160 530 l 1,9,-1
 160 735 l 1,10,-1
 240 735 l 1,11,-1
 240 530 l 1,12,-1
 401 530 l 1,13,-1
 401 458 l 1,14,-1
 240 458 l 1,15,-1
 240 189 l 2,16,17
 240 135 240 135 259 102 c 0,18,19
 271 82 271 82 287 72 c 0,20,21
 302 64 302 64 320 64 c 0,22,23
 339 64 339 64 354 72 c 0,24,25
 371 82 371 82 382 102 c 0,26,27
 398 130 398 130 401 170 c 1,28,-1
 479 155 l 1,29,30
 475 107 475 107 453 67 c 0,31,32
 431 30 431 30 398 11 c 128,-1,33
 365 -8 365 -8 320 -8 c 0,0,1
EndSplineSet
Substitution2: "Single Substitution lookup 31 subtable" t.cv41
Substitution2: "'ss11' Style Set 11 lookup 30 subtable" t.ss11
EndChar

StartChar: u
Encoding: 117 117 86
Width: 500
GlyphClass: 2
Flags: W
AnchorPoint: "Anclaje-6" 398 0 basechar 0
AnchorPoint: "Anclaje-5" 434 0 basechar 0
AnchorPoint: "Anclaje-4" 434 530 basechar 0
AnchorPoint: "Anclaje-3" 250 265 basechar 0
AnchorPoint: "Anclaje-2" 250 275 basechar 0
AnchorPoint: "Anclaje-1" 250 0 basechar 0
AnchorPoint: "Anclaje-0" 250 530 basechar 0
LayerCount: 2
Fore
SplineSet
225 -8 m 256,0,1
 186 -8 186 -8 156 9 c 0,2,3
 123 28 123 28 100 67 c 0,4,5
 66 127 66 127 66 220 c 2,6,-1
 66 458 l 1,7,-1
 21 458 l 1,8,-1
 21 530 l 1,9,-1
 146 530 l 1,10,-1
 146 220 l 2,11,12
 146 154 146 154 170 113 c 0,13,14
 184 88 184 88 206 75 c 0,15,16
 226 64 226 64 250 64 c 256,17,18
 274 64 274 64 294 75 c 0,19,20
 316 88 316 88 330 113 c 0,21,22
 354 154 354 154 354 220 c 2,23,-1
 354 458 l 1,24,-1
 309 458 l 1,25,-1
 309 530 l 1,26,-1
 434 530 l 1,27,-1
 434 72 l 1,28,-1
 479 72 l 1,29,-1
 479 0 l 1,30,-1
 354 0 l 1,31,-1
 354 76 l 2,32,33
 352 72 352 72 349 67 c 0,34,35
 327 28 327 28 293 9 c 0,36,37
 264 -8 264 -8 225 -8 c 256,0,1
EndSplineSet
EndChar

StartChar: v
Encoding: 118 118 87
Width: 500
GlyphClass: 2
Flags: W
AnchorPoint: "Anclaje-5" 434 0 basechar 0
AnchorPoint: "Anclaje-4" 434 530 basechar 0
AnchorPoint: "Anclaje-3" 250 265 basechar 0
AnchorPoint: "Anclaje-2" 250 275 basechar 0
AnchorPoint: "Anclaje-1" 250 0 basechar 0
AnchorPoint: "Anclaje-0" 250 530 basechar 0
LayerCount: 2
Fore
SplineSet
202 0 m 1,0,1
 80 362 80 362 68 458 c 1,2,-1
 21 458 l 1,3,-1
 21 530 l 1,4,-1
 191 530 l 1,5,-1
 191 458 l 1,6,-1
 147 458 l 1,7,8
 158 375 158 375 250 84 c 1,9,10
 342 375 342 375 353 458 c 1,11,-1
 309 458 l 1,12,-1
 309 530 l 1,13,-1
 479 530 l 1,14,-1
 479 458 l 1,15,-1
 432 458 l 1,16,17
 420 362 420 362 298 0 c 1,18,-1
 202 0 l 1,0,1
EndSplineSet
EndChar

StartChar: w
Encoding: 119 119 88
Width: 500
GlyphClass: 2
Flags: W
AnchorPoint: "Anclaje-5" 434 0 basechar 0
AnchorPoint: "Anclaje-4" 434 530 basechar 0
AnchorPoint: "Anclaje-3" 250 265 basechar 0
AnchorPoint: "Anclaje-2" 250 275 basechar 0
AnchorPoint: "Anclaje-1" 250 0 basechar 0
AnchorPoint: "Anclaje-0" 250 530 basechar 0
LayerCount: 2
Fore
SplineSet
138 0 m 1,0,1
 66 277 66 277 66 398 c 2,2,-1
 66 458 l 1,3,-1
 21 458 l 1,4,-1
 21 530 l 1,5,-1
 191 530 l 1,6,-1
 191 458 l 1,7,-1
 146 458 l 1,8,-1
 146 398 l 2,9,10
 146 302 146 302 166 105 c 1,11,-1
 225 318 l 1,12,-1
 275 318 l 1,13,-1
 334 105 l 1,14,15
 354 302 354 302 354 398 c 2,16,-1
 354 458 l 1,17,-1
 309 458 l 1,18,-1
 309 530 l 1,19,-1
 479 530 l 1,20,-1
 479 458 l 1,21,-1
 434 458 l 1,22,-1
 434 398 l 2,23,24
 434 277 434 277 362 0 c 1,25,-1
 313 0 l 1,26,-1
 250 228 l 1,27,-1
 187 0 l 1,28,-1
 138 0 l 1,0,1
EndSplineSet
EndChar

StartChar: x
Encoding: 120 120 89
Width: 500
GlyphClass: 2
Flags: W
AnchorPoint: "Anclaje-5" 434 0 basechar 0
AnchorPoint: "Anclaje-4" 434 530 basechar 0
AnchorPoint: "Anclaje-3" 250 265 basechar 0
AnchorPoint: "Anclaje-2" 250 275 basechar 0
AnchorPoint: "Anclaje-1" 250 0 basechar 0
AnchorPoint: "Anclaje-0" 250 530 basechar 0
LayerCount: 2
Fore
SplineSet
21 0 m 1,0,-1
 21 72 l 1,1,-1
 86 72 l 1,2,3
 97 94 97 94 112 120 c 0,4,5
 123 139 123 139 130 151 c 2,6,-1
 203 265 l 1,7,-1
 130 379 l 2,8,9
 123 391 123 391 112 410 c 0,10,11
 97 436 97 436 86 458 c 1,12,-1
 21 458 l 1,13,-1
 21 530 l 1,14,-1
 191 530 l 1,15,-1
 191 458 l 1,16,-1
 173 458 l 1,17,18
 183 440 183 440 197 419 c 2,19,-1
 250 337 l 1,20,-1
 303 419 l 2,21,22
 317 440 317 440 327 458 c 1,23,-1
 309 458 l 1,24,-1
 309 530 l 1,25,-1
 479 530 l 1,26,-1
 479 458 l 1,27,-1
 414 458 l 1,28,29
 403 436 403 436 388 410 c 0,30,31
 377 391 377 391 370 379 c 2,32,-1
 297 265 l 1,33,-1
 370 151 l 2,34,35
 377 139 377 139 388 120 c 0,36,37
 403 94 403 94 414 72 c 1,38,-1
 479 72 l 1,39,-1
 479 0 l 1,40,-1
 309 0 l 1,41,-1
 309 72 l 1,42,-1
 327 72 l 1,43,44
 317 90 317 90 303 111 c 2,45,-1
 250 193 l 1,46,-1
 197 111 l 2,47,48
 183 90 183 90 173 72 c 1,49,-1
 191 72 l 1,50,-1
 191 0 l 1,51,-1
 21 0 l 1,0,-1
EndSplineSet
EndChar

StartChar: y
Encoding: 121 121 90
Width: 500
GlyphClass: 2
Flags: W
AnchorPoint: "Anclaje-5" 434 -205 basechar 0
AnchorPoint: "Anclaje-4" 434 530 basechar 0
AnchorPoint: "Anclaje-3" 250 162 basechar 0
AnchorPoint: "Anclaje-2" 250 177 basechar 0
AnchorPoint: "Anclaje-1" 250 -205 basechar 0
AnchorPoint: "Anclaje-0" 250 530 basechar 0
LayerCount: 2
Fore
SplineSet
90 -205 m 1,0,-1
 90 -133 l 1,1,-1
 126 -133 l 2,2,3
 152 -133 152 -133 165 -120 c 0,4,5
 175 -110 175 -110 185 -79 c 2,6,-1
 211 3 l 1,7,-1
 97 341 l 2,8,9
 75 409 75 409 68 458 c 1,10,-1
 21 458 l 1,11,-1
 21 530 l 1,12,-1
 191 530 l 1,13,-1
 191 458 l 1,14,-1
 149 458 l 1,15,16
 155 420 155 420 173 364 c 2,17,-1
 250 123 l 1,18,-1
 327 364 l 2,19,20
 345 420 345 420 351 458 c 1,21,-1
 309 458 l 1,22,-1
 309 530 l 1,23,-1
 479 530 l 1,24,-1
 479 458 l 1,25,-1
 432 458 l 1,26,27
 425 409 425 409 403 341 c 2,28,-1
 255 -99 l 2,29,30
 244 -135 244 -135 234 -151 c 0,31,32
 219 -177 219 -177 196 -191 c 0,33,34
 171 -205 171 -205 126 -205 c 2,35,-1
 90 -205 l 1,0,-1
EndSplineSet
Substitution2: "Single Substitution lookup 20 subtable" y.cv49
Substitution2: "'ss11' Style Set 11 lookup 19 subtable" y.ss11
EndChar

StartChar: z
Encoding: 122 122 91
Width: 500
GlyphClass: 2
Flags: W
AnchorPoint: "Anclaje-5" 434 0 basechar 0
AnchorPoint: "Anclaje-4" 434 530 basechar 0
AnchorPoint: "Anclaje-3" 250 265 basechar 0
AnchorPoint: "Anclaje-2" 250 275 basechar 0
AnchorPoint: "Anclaje-1" 250 0 basechar 0
AnchorPoint: "Anclaje-0" 250 530 basechar 0
LayerCount: 2
Fore
SplineSet
66 0 m 1,0,-1
 66 72 l 1,1,-1
 338 458 l 1,2,-1
 146 458 l 1,3,-1
 146 385 l 1,4,-1
 66 385 l 1,5,-1
 66 530 l 1,6,-1
 434 530 l 1,7,-1
 434 458 l 1,8,-1
 162 72 l 1,9,-1
 354 72 l 1,10,-1
 354 145 l 1,11,-1
 434 145 l 1,12,-1
 434 0 l 1,13,-1
 66 0 l 1,0,-1
EndSplineSet
EndChar

StartChar: braceleft
Encoding: 123 123 92
Width: 500
GlyphClass: 2
Flags: W
LayerCount: 2
Fore
SplineSet
416 -179 m 1,0,1
 326 -179 326 -179 266 -144 c 0,2,3
 222 -119 222 -119 199 -79 c 0,4,5
 177 -40 177 -40 177 11 c 0,6,7
 177 61 177 61 204 130 c 0,8,9
 226 188 226 188 227 219 c 0,10,11
 226 248 226 248 214 270 c 0,12,13
 200 293 200 293 175 308 c 0,14,15
 139 329 139 329 84 329 c 1,16,-1
 84 401 l 1,17,18
 139 401 139 401 175 422 c 0,19,20
 200 437 200 437 214 460 c 0,21,22
 226 482 226 482 227 511 c 0,23,24
 226 542 226 542 204 600 c 0,25,26
 177 669 177 669 177 719 c 0,27,28
 177 770 177 770 199 809 c 0,29,30
 222 849 222 849 266 874 c 0,31,32
 326 909 326 909 416 909 c 1,33,-1
 416 837 l 1,34,35
 353 837 353 837 313 813 c 0,36,37
 285 797 285 797 270 772 c 0,38,39
 257 749 257 749 257 719 c 0,40,41
 257 688 257 688 280 630 c 0,42,43
 306 561 306 561 307 511 c 0,44,45
 306 460 306 460 285 423 c 0,46,47
 265 388 265 388 228 365 c 1,48,49
 265 342 265 342 285 307 c 0,50,51
 306 270 306 270 307 219 c 0,52,53
 306 169 306 169 280 100 c 0,54,55
 257 42 257 42 257 11 c 0,56,57
 257 -19 257 -19 270 -42 c 0,58,59
 285 -67 285 -67 313 -83 c 0,60,61
 353 -107 353 -107 416 -107 c 1,62,-1
 416 -179 l 1,0,1
EndSplineSet
Substitution2: "'ss10' Style Set 10 lookup 42 subtable" braceleft.ss10
Substitution2: "'ss11' Style Set 11 lookup 41 subtable" braceleft.ss11
EndChar

StartChar: bar
Encoding: 124 124 93
Width: 500
GlyphClass: 2
Flags: W
AnchorPoint: "Anclaje-1" 250 -168 basechar 0
AnchorPoint: "Anclaje-0" 250 898 basechar 0
LayerCount: 2
Fore
SplineSet
210 -168 m 1,0,-1
 210 898 l 1,1,-1
 290 898 l 1,2,-1
 290 -168 l 1,3,-1
 210 -168 l 1,0,-1
EndSplineSet
EndChar

StartChar: braceright
Encoding: 125 125 94
Width: 500
GlyphClass: 2
Flags: W
LayerCount: 2
Fore
SplineSet
84 -179 m 1,0,-1
 84 -107 l 1,1,2
 147 -107 147 -107 187 -83 c 0,3,4
 215 -67 215 -67 230 -42 c 0,5,6
 243 -19 243 -19 243 11 c 0,7,8
 243 42 243 42 220 100 c 0,9,10
 194 169 194 169 193 219 c 0,11,12
 194 270 194 270 215 307 c 0,13,14
 235 342 235 342 272 365 c 1,15,16
 235 388 235 388 215 423 c 0,17,18
 194 460 194 460 193 511 c 0,19,20
 194 561 194 561 220 630 c 0,21,22
 243 688 243 688 243 719 c 0,23,24
 243 749 243 749 230 772 c 0,25,26
 215 797 215 797 187 813 c 0,27,28
 147 837 147 837 84 837 c 1,29,-1
 84 909 l 1,30,31
 174 909 174 909 234 874 c 0,32,33
 278 849 278 849 301 809 c 0,34,35
 323 770 323 770 323 719 c 0,36,37
 323 669 323 669 296 600 c 0,38,39
 274 542 274 542 273 511 c 0,40,41
 274 482 274 482 286 460 c 0,42,43
 300 437 300 437 325 422 c 0,44,45
 361 401 361 401 416 401 c 1,46,-1
 416 329 l 1,47,48
 361 329 361 329 325 308 c 0,49,50
 300 293 300 293 286 270 c 0,51,52
 274 248 274 248 273 219 c 0,53,54
 274 188 274 188 296 130 c 0,55,56
 323 61 323 61 323 11 c 0,57,58
 323 -40 323 -40 301 -79 c 0,59,60
 278 -119 278 -119 234 -144 c 0,61,62
 174 -179 174 -179 84 -179 c 1,0,-1
EndSplineSet
Substitution2: "'ss10' Style Set 10 lookup 42 subtable" braceright.ss10
Substitution2: "'ss11' Style Set 11 lookup 41 subtable" braceright.ss11
EndChar

StartChar: asciitilde
Encoding: 126 126 95
Width: 500
GlyphClass: 2
Flags: W
AnchorPoint: "Anclaje-5" 434 0 basechar 0
AnchorPoint: "Anclaje-4" 434 530 basechar 0
AnchorPoint: "Anclaje-3" 250 365 basechar 0
AnchorPoint: "Anclaje-2" 250 373 basechar 0
AnchorPoint: "Anclaje-1" 250 162 basechar 0
AnchorPoint: "Anclaje-0" 250 567 basechar 0
LayerCount: 2
Fore
SplineSet
322 245 m 256,0,1
 302 245 302 245 284 256 c 0,2,3
 256 272 256 272 219 334 c 0,4,5
 194 372 194 372 184 383 c 0,6,7
 181 386 181 386 178 388 c 0,8,9
 164 378 164 378 143.5 343 c 128,-1,10
 123 308 123 308 99 249 c 1,11,-1
 33 273 l 1,12,13
 56 332 56 332 79 373 c 0,14,15
 110 425 110 425 140 442 c 0,16,17
 158 453 158 453 178 453 c 256,18,19
 198 453 198 453 216 443 c 0,20,21
 244 427 244 427 281 365 c 0,22,23
 306 326 306 326 316 316 c 0,24,25
 319 313 319 313 322 311 c 0,26,27
 336 320 336 320 356.5 355 c 128,-1,28
 377 390 377 390 401 449 c 1,29,-1
 467 425 l 1,30,31
 444 367 444 367 421 325 c 0,32,33
 390 274 390 274 360 256 c 0,34,35
 342 245 342 245 322 245 c 256,0,1
EndSplineSet
Substitution2: "'ss10' Style Set 10 lookup 55 subtable" asciitilde.ss10
Substitution2: "'ss11' Style Set 11 lookup 54 subtable" asciitilde.ss11
EndChar

StartChar: exclamdown
Encoding: 161 161 97
Width: 500
GlyphClass: 2
Flags: W
LayerCount: 2
Fore
SplineSet
250 397 m 256,0,1
 228 397 228 397 211 406 c 0,2,3
 197 415 197 415 189 429 c 0,4,5
 179 445 179 445 180 468 c 0,6,7
 179 490 179 490 189 506 c 0,8,9
 197 520 197 520 211 529 c 0,10,11
 228 538 228 538 250 538 c 256,12,13
 272 538 272 538 289 529 c 0,14,15
 303 520 303 520 311 506 c 0,16,17
 320 491 320 491 321 468 c 0,18,19
 320 444 320 444 311 429 c 0,20,21
 303 415 303 415 289 406 c 0,22,23
 272 397 272 397 250 397 c 256,0,1
210 -205 m 1,24,-1
 210 270 l 1,25,-1
 290 270 l 1,26,-1
 290 -205 l 1,27,-1
 210 -205 l 1,24,-1
EndSplineSet
EndChar

StartChar: periodcentered
Encoding: 183 183 100
Width: 500
GlyphClass: 2
Flags: W
LayerCount: 2
Fore
SplineSet
250 287 m 256,0,1
 225 287 225 287 207 297 c 0,2,3
 192 306 192 306 182 322 c 0,4,5
 172 340 172 340 172 365 c 128,-1,6
 172 390 172 390 182 408 c 0,7,8
 192 424 192 424 207 433 c 0,9,10
 225 443 225 443 250 443 c 256,11,12
 275 443 275 443 293 433 c 0,13,14
 308 424 308 424 318 408 c 0,15,16
 328 390 328 390 328 365 c 128,-1,17
 328 340 328 340 318 322 c 0,18,19
 308 306 308 306 293 297 c 0,20,21
 275 287 275 287 250 287 c 256,0,1
EndSplineSet
EndChar

StartChar: questiondown
Encoding: 191 191 102
Width: 500
GlyphClass: 2
Flags: W
LayerCount: 2
Fore
SplineSet
250 397 m 256,0,1
 228 397 228 397 211 406 c 0,2,3
 197 415 197 415 189 429 c 0,4,5
 179 445 179 445 180 468 c 0,6,7
 179 490 179 490 189 506 c 0,8,9
 197 520 197 520 211 529 c 0,10,11
 228 538 228 538 250 538 c 256,12,13
 272 538 272 538 289 529 c 0,14,15
 303 520 303 520 311 506 c 0,16,17
 320 491 320 491 321 468 c 0,18,19
 320 444 320 444 311 429 c 0,20,21
 303 415 303 415 289 406 c 0,22,23
 272 397 272 397 250 397 c 256,0,1
253 -213 m 0,24,25
 192 -213 192 -213 149 -188 c 0,26,27
 112 -166 112 -166 90 -129 c 0,28,29
 66 -87 66 -87 66 -35 c 0,30,31
 66 24 66 24 99 81 c 0,32,33
 114 107 114 107 149 150 c 0,34,35
 175 184 175 184 185 202 c 0,36,37
 210 244 210 244 210 310 c 1,38,-1
 290 309 l 1,39,40
 290 221 290 221 258 166 c 0,41,42
 244 141 244 141 210 100 c 0,43,44
 180 62 180 62 170 43 c 0,45,46
 146 2 146 2 146 -37 c 0,47,48
 146 -68 146 -68 160 -93 c 0,49,50
 172 -114 172 -114 194 -127 c 0,51,52
 219 -141 219 -141 253 -141 c 0,53,54
 290 -141 290 -141 316 -126 c 0,55,56
 337 -114 337 -114 348.5 -94 c 128,-1,57
 360 -74 360 -74 360 -51 c 0,58,59
 360 -49 360 -49 360 -45 c 0,60,61
 360 -43 360 -43 360 -41 c 2,62,-1
 439 -50 l 2,63,64
 439 -54 439 -54 439 -57 c 0,65,66
 439 -97 439 -97 419 -130 c 0,67,68
 399 -166 399 -166 362 -187 c 0,69,70
 318 -213 318 -213 253 -213 c 0,24,25
EndSplineSet
EndChar

StartChar: dotlessi
Encoding: 307 305 121
Width: 500
GlyphClass: 2
Flags: W
AnchorPoint: "Anclaje-5" 434 0 basechar 0
AnchorPoint: "Anclaje-4" 434 530 basechar 0
AnchorPoint: "Anclaje-3" 250 265 basechar 0
AnchorPoint: "Anclaje-2" 250 275 basechar 0
AnchorPoint: "Anclaje-1" 250 0 basechar 0
AnchorPoint: "Anclaje-0" 250 530 basechar 0
LayerCount: 2
Fore
SplineSet
75 0 m 1,0,-1
 75 72 l 1,1,-1
 217 72 l 1,2,-1
 217 458 l 1,3,-1
 89 458 l 1,4,-1
 89 530 l 1,5,-1
 297 530 l 1,6,-1
 297 72 l 1,7,-1
 425 72 l 1,8,-1
 425 0 l 1,9,-1
 75 0 l 1,0,-1
EndSplineSet
Substitution2: "'cv04' Character Variants 04 lookup 10 subtable" dotlessi.cv04
Substitution2: "'ss11' Style Set 11 lookup 9 subtable" dotlessi.ss11
Substitution2: "'ss07' Style Set 7 lookup 8 subtable" dotlessi.ss07
Substitution2: "'ss10' Style Set 10 lookup 7 subtable" dotlessi.ss10
EndChar

StartChar: uni0261
Encoding: 603 609 122
Width: 500
GlyphClass: 2
Flags: W
AnchorPoint: "Anclaje-5" 434 -205 basechar 0
AnchorPoint: "Anclaje-4" 434 530 basechar 0
AnchorPoint: "Anclaje-3" 250 162 basechar 0
AnchorPoint: "Anclaje-2" 250 177 basechar 0
AnchorPoint: "Anclaje-1" 250 -205 basechar 0
AnchorPoint: "Anclaje-0" 250 530 basechar 0
LayerCount: 2
Fore
SplineSet
238 -213 m 256,0,1
 182 -213 182 -213 140.5 -189 c 128,-1,2
 99 -165 99 -165 74 -122 c 0,3,4
 67 -109 67 -109 61 -95 c 1,5,-1
 133 -63 l 1,6,7
 136 -73 136 -73 143 -86 c 0,8,9
 159 -114 159 -114 184 -128 c 0,10,11
 207 -141 207 -141 238 -141 c 0,12,13
 268 -141 268 -141 291 -128 c 0,14,15
 315 -114 315 -114 331 -86 c 0,16,17
 354 -46 354 -46 354 15 c 2,18,-1
 354 76 l 2,19,20
 352 72 352 72 349 67 c 0,21,22
 327 28 327 28 293 9 c 0,23,24
 264 -8 264 -8 223 -8 c 0,25,26
 179 -8 179 -8 144 12 c 0,27,28
 107 33 107 33 83 74 c 0,29,30
 50 133 50 133 50 220 c 2,31,-1
 50 310 l 2,32,33
 50 397 50 397 83 456 c 0,34,35
 107 497 107 497 144 518 c 0,36,37
 179 538 179 538 223 538 c 0,38,39
 264 538 264 538 293 521 c 0,40,41
 327 502 327 502 349 463 c 0,42,43
 352 458 352 458 354 454 c 2,44,-1
 354 530 l 1,45,-1
 479 530 l 1,46,-1
 479 458 l 1,47,-1
 434 458 l 1,48,-1
 434 15 l 2,49,50
 434 -66 434 -66 402 -122 c 0,51,52
 377 -165 377 -165 336 -189 c 0,53,54
 294 -213 294 -213 238 -213 c 256,0,1
249 64 m 0,55,56
 274 64 274 64 294 75 c 0,57,58
 316 88 316 88 330 113 c 0,59,60
 354 154 354 154 354 220 c 2,61,-1
 354 310 l 2,62,63
 354 376 354 376 330 417 c 0,64,65
 316 442 316 442 294 455 c 0,66,67
 274 466 274 466 249 466 c 0,68,69
 218 466 218 466 194 452 c 0,70,71
 169 437 169 437 153 409 c 0,72,73
 130 370 130 370 130 310 c 2,74,-1
 130 220 l 2,75,76
 130 160 130 160 153 121 c 0,77,78
 169 93 169 93 194 78 c 0,79,80
 218 64 218 64 249 64 c 0,55,56
EndSplineSet
EndChar

StartChar: uni0269
Encoding: 611 617 123
Width: 500
GlyphClass: 2
Flags: W
AnchorPoint: "Anclaje-5" 434 0 basechar 0
AnchorPoint: "Anclaje-4" 434 530 basechar 0
AnchorPoint: "Anclaje-3" 250 265 basechar 0
AnchorPoint: "Anclaje-2" 250 275 basechar 0
AnchorPoint: "Anclaje-1" 250 0 basechar 0
AnchorPoint: "Anclaje-0" 250 530 basechar 0
LayerCount: 2
Fore
SplineSet
369 0 m 2,0,1
 317 0 317 0 280 21 c 0,2,3
 249 40 249 40 230 71 c 0,4,5
 210 107 210 107 210 155 c 2,6,-1
 210 458 l 1,7,-1
 75 458 l 1,8,-1
 75 530 l 1,9,-1
 290 530 l 1,10,-1
 290 155 l 2,11,12
 290 128 290 128 301 108 c 0,13,14
 311 91 311 91 327 82 c 0,15,16
 344 72 344 72 369 72 c 2,17,-1
 434 72 l 1,18,-1
 434 0 l 1,19,-1
 369 0 l 2,0,1
EndSplineSet
EndChar

StartChar: uni02BB
Encoding: 693 699 124
Width: 500
GlyphClass: 2
Flags: W
LayerCount: 2
Fore
SplineSet
250 442 m 256,0,1
 225 442 225 442 208 453 c 0,2,3
 192 461 192 461 183 477 c 0,4,5
 173 495 173 495 173 520 c 0,6,7
 173 629 173 629 236 738 c 0,8,9
 251 765 251 765 271 792 c 1,10,-1
 333 751 l 1,11,12
 317 729 317 729 303 705 c 0,13,14
 272 651 272 651 259 596 c 1,15,16
 278 595 278 595 292 587 c 0,17,18
 308 578 308 578 317 562 c 0,19,20
 327 544 327 544 327 519.5 c 128,-1,21
 327 495 327 495 317 477 c 0,22,23
 308 461 308 461 292 453 c 0,24,25
 275 442 275 442 250 442 c 256,0,1
EndSplineSet
EndChar

StartChar: uni02BC
Encoding: 694 700 125
Width: 500
GlyphClass: 2
Flags: W
LayerCount: 2
Fore
SplineSet
229 430 m 1,0,-1
 167 471 l 1,1,2
 183 493 183 493 197 517 c 0,3,4
 228 572 228 572 241 626 c 1,5,6
 222 627 222 627 208 636 c 0,7,8
 192 645 192 645 183 660 c 0,9,10
 173 678 173 678 173 702.5 c 128,-1,11
 173 727 173 727 183 745 c 0,12,13
 192 761 192 761 208 770 c 0,14,15
 225 780 225 780 250 780 c 256,16,17
 275 780 275 780 292 770 c 0,18,19
 308 761 308 761 317 745 c 0,20,21
 327 727 327 727 327 703 c 0,22,23
 327 593 327 593 264 484 c 0,24,25
 249 457 249 457 229 430 c 1,0,-1
EndSplineSet
EndChar

StartChar: acutecomb
Encoding: 737 769 126
Width: 0
GlyphClass: 4
Flags: W
AnchorPoint: "Anclaje-8" -250 743 basemark 0
AnchorPoint: "Anclaje-8" -250 530 mark 0
AnchorPoint: "Anclaje-0" -250 530 mark 0
LayerCount: 2
Fore
SplineSet
-262 563 m 1,0,-1
 -317 606 l 1,1,-1
 -183 770 l 1,2,-1
 -117 718 l 1,3,-1
 -262 563 l 1,0,-1
EndSplineSet
EndChar

StartChar: uni0302
Encoding: 738 770 127
Width: 0
GlyphClass: 4
Flags: W
AnchorPoint: "Anclaje-8" -250 743 basemark 0
AnchorPoint: "Anclaje-8" -250 530 mark 0
AnchorPoint: "Anclaje-0" -250 530 mark 0
LayerCount: 2
Fore
SplineSet
-355 567 m 1,0,-1
 -424 616 l 1,1,-1
 -294 767 l 1,2,-1
 -206 767 l 1,3,-1
 -76 616 l 1,4,-1
 -145 567 l 1,5,-1
 -250 708 l 1,6,-1
 -355 567 l 1,0,-1
EndSplineSet
EndChar

StartChar: tildecomb
Encoding: 739 771 128
Width: 0
GlyphClass: 4
Flags: W
AnchorPoint: "Anclaje-8" -250 743 basemark 0
AnchorPoint: "Anclaje-8" -250 530 mark 0
AnchorPoint: "Anclaje-0" -250 530 mark 0
LayerCount: 2
Fore
SplineSet
-192 585 m 256,0,1
 -210 585 -210 585 -227 595 c 0,2,3
 -250 608 -250 608 -281 656 c 0,4,5
 -299 684 -299 684 -308 692 c 1,6,7
 -319 683 -319 683 -333 659 c 0,8,9
 -348 633 -348 633 -367 588 c 1,10,-1
 -433 613 l 1,11,12
 -415 658 -415 658 -397 689 c 0,13,14
 -371 734 -371 734 -344 750 c 0,15,16
 -326 759 -326 759 -308 759 c 256,17,18
 -290 759 -290 759 -273 750 c 0,19,20
 -250 737 -250 737 -219 688 c 0,21,22
 -201 661 -201 661 -192 652 c 1,23,24
 -181 661 -181 661 -167 685 c 0,25,26
 -152 712 -152 712 -133 756 c 1,27,-1
 -67 732 l 1,28,29
 -85 687 -85 687 -103 656 c 0,30,31
 -129 611 -129 611 -156 595 c 0,32,33
 -174 585 -174 585 -192 585 c 256,0,1
EndSplineSet
EndChar

StartChar: uni0307
Encoding: 743 775 129
Width: 0
GlyphClass: 4
Flags: W
AnchorPoint: "Anclaje-8" -250 743 basemark 0
AnchorPoint: "Anclaje-8" -250 530 mark 0
AnchorPoint: "Anclaje-0" -250 530 mark 0
LayerCount: 2
Fore
SplineSet
-250 623 m 256,0,1
 -270 623 -270 623 -283.5 630.5 c 128,-1,2
 -297 638 -297 638 -304 651 c 0,3,4
 -313 665 -313 665 -312 685 c 0,5,6
 -313 705 -313 705 -304 719 c 0,7,8
 -297 732 -297 732 -283.5 740 c 128,-1,9
 -270 748 -270 748 -250 748 c 256,10,11
 -230 748 -230 748 -216.5 740 c 128,-1,12
 -203 732 -203 732 -196 719 c 0,13,14
 -188 706 -188 706 -187 685 c 0,15,16
 -188 664 -188 664 -196 651 c 0,17,18
 -203 638 -203 638 -216.5 630.5 c 128,-1,19
 -230 623 -230 623 -250 623 c 256,0,1
EndSplineSet
EndChar

StartChar: uni030A
Encoding: 746 778 131
Width: 0
GlyphClass: 4
Flags: W
AnchorPoint: "Anclaje-8" -250 743 basemark 0
AnchorPoint: "Anclaje-8" -250 530 mark 0
AnchorPoint: "Anclaje-0" -250 530 mark 0
LayerCount: 2
Fore
SplineSet
-250 565 m 256,0,1
 -281 565 -281 565 -303 577 c 0,2,3
 -322 589 -322 589 -333 608 c 0,4,5
 -346 630 -346 630 -346 661 c 128,-1,6
 -346 692 -346 692 -333 713 c 0,7,8
 -322 732 -322 732 -303 744 c 0,9,10
 -281 757 -281 757 -250 757 c 256,11,12
 -219 757 -219 757 -197 744 c 0,13,14
 -178 732 -178 732 -167 713 c 0,15,16
 -154 692 -154 692 -154 661 c 128,-1,17
 -154 630 -154 630 -167 608 c 0,18,19
 -178 589 -178 589 -197 577 c 0,20,21
 -219 565 -219 565 -250 565 c 256,0,1
-250 624 m 256,22,23
 -233 624 -233 624 -223 634 c 128,-1,24
 -213 644 -213 644 -213 661 c 128,-1,25
 -213 678 -213 678 -223 688 c 128,-1,26
 -233 698 -233 698 -250 698 c 256,27,28
 -267 698 -267 698 -277 688 c 128,-1,29
 -287 678 -287 678 -287 661 c 128,-1,30
 -287 644 -287 644 -277 634 c 128,-1,31
 -267 624 -267 624 -250 624 c 256,22,23
EndSplineSet
EndChar

StartChar: emdash
Encoding: 151 8212 132
Width: 500
GlyphClass: 2
Flags: W
LayerCount: 2
Fore
SplineSet
0 329 m 1,0,-1
 0 401 l 1,1,-1
 500 401 l 1,2,-1
 500 329 l 1,3,-1
 0 329 l 1,0,-1
EndSplineSet
EndChar

StartChar: guilsinglleft
Encoding: 139 8249 138
Width: 500
GlyphClass: 2
Flags: W
LayerCount: 2
Fore
SplineSet
295 86 m 1,0,1
 274 149 274 149 240 208 c 0,2,3
 194 287 194 287 130 329 c 1,4,-1
 130 401 l 1,5,6
 194 443 194 443 240 522 c 0,7,8
 274 581 274 581 295 644 c 1,9,-1
 370 619 l 1,10,11
 351 574 351 574 327 532 c 0,12,13
 266 425 266 425 186 365 c 1,14,15
 266 305 266 305 327 198 c 0,16,17
 351 156 351 156 370 111 c 1,18,-1
 295 86 l 1,0,1
EndSplineSet
EndChar

StartChar: guilsinglright
Encoding: 155 8250 139
Width: 500
GlyphClass: 2
Flags: W
LayerCount: 2
Fore
SplineSet
205 86 m 1,0,-1
 130 111 l 1,1,2
 149 156 149 156 173 198 c 0,3,4
 234 305 234 305 314 365 c 1,5,6
 234 425 234 425 173 532 c 0,7,8
 149 574 149 574 130 619 c 1,9,-1
 205 644 l 1,10,11
 226 581 226 581 260 522 c 0,12,13
 306 443 306 443 370 401 c 1,14,-1
 370 329 l 1,15,16
 306 287 306 287 260 208 c 0,17,18
 226 149 226 149 205 86 c 1,0,-1
EndSplineSet
EndChar

StartChar: arrowright
Encoding: 1888 8594 140
Width: 500
GlyphClass: 2
Flags: W
AnchorPoint: "Anclaje-3" 206 365 basechar 0
LayerCount: 2
Fore
SplineSet
341 215 m 1,0,-1
 309 246 l 1,1,-1
 384 329 l 1,2,-1
 33 329 l 1,3,-1
 33 401 l 1,4,-1
 384 401 l 1,5,-1
 309 484 l 1,6,-1
 341 515 l 1,7,-1
 491 365 l 1,8,-1
 341 215 l 1,0,-1
EndSplineSet
EndChar

StartChar: at.ss11
Encoding: 3064 -1 143
Width: 500
GlyphClass: 2
Flags: W
LayerCount: 2
Fore
SplineSet
250 -176 m 2,0,1
 195 -176 195 -176 154 -153 c 0,2,3
 117 -131 117 -131 94 -91 c 0,4,5
 66 -43 66 -43 66 27 c 2,6,-1
 66 703 l 2,7,8
 66 773 66 773 94 821 c 0,9,10
 117 861 117 861 155 883 c 0,11,12
 195 906 195 906 250 906 c 256,13,14
 305 906 305 906 345 883 c 0,15,16
 383 861 383 861 406 821 c 0,17,18
 434 773 434 773 434 703 c 2,19,-1
 434 177 l 2,20,21
 434 124 434 124 414 88 c 0,22,23
 399 63 399 63 376.5 50 c 128,-1,24
 354 37 354 37 324 37 c 0,25,26
 292 37 292 37 267.5 51.5 c 128,-1,27
 243 66 243 66 227 92 c 0,28,29
 207 127 207 127 207 177 c 2,30,-1
 207 499 l 2,31,32
 207 550 207 550 227 584 c 0,33,34
 243 611 243 611 267.5 625 c 128,-1,35
 292 639 292 639 325 640 c 2,36,-1
 354 640 l 1,37,-1
 354 703 l 2,38,39
 354 752 354 752 335 785 c 0,40,41
 321 809 321 809 299 822 c 0,42,43
 278 834 278 834 250 834 c 256,44,45
 222 834 222 834 201 822 c 0,46,47
 179 809 179 809 165 785 c 0,48,49
 146 752 146 752 146 703 c 2,50,-1
 146 27 l 2,51,52
 146 -22 146 -22 165 -55 c 0,53,54
 179 -79 179 -79 200.5 -91.5 c 128,-1,55
 222 -104 222 -104 250 -104 c 2,56,-1
 398 -104 l 1,57,-1
 398 -176 l 1,58,-1
 250 -176 l 2,0,1
324 109 m 0,59,60
 332 109 332 109 338 115 c 0,61,62
 354 131 354 131 354 177 c 2,63,-1
 354 568 l 1,64,-1
 325 568 l 2,65,66
 313 568 313 568 305 559 c 0,67,68
 287 542 287 542 287 499 c 2,69,-1
 287 177 l 2,70,71
 287 135 287 135 305 118 c 0,72,73
 313 109 313 109 324 109 c 0,59,60
EndSplineSet
EndChar

StartChar: glyph3483
Encoding: 3520 -1 144
Width: 0
GlyphClass: 2
Flags: W
LayerCount: 2
Fore
SplineSet
248 -4 m 256,0,1
 204 -4 204 -4 174 13 c 0,2,3
 149 27 149 27 136 50 c 0,4,5
 122 74 122 74 122 107 c 2,6,-1
 122 297 l 2,7,8
 122 330 122 330 136 354 c 0,9,10
 149 377 149 377 174 391 c 0,11,12
 204 409 204 409 248 409 c 256,13,14
 292 409 292 409 322 391 c 0,15,16
 346 377 346 377 360 353 c 0,17,18
 369 337 369 337 372 319 c 1,19,-1
 308 304 l 1,20,21
 306 320 306 320 294 333 c 0,22,23
 277 349 277 349 248 349 c 0,24,25
 218 349 218 349 202 332 c 0,26,27
 189 319 189 319 188 297 c 2,28,-1
 188 107 l 2,29,30
 189 85 189 85 202 72 c 0,31,32
 218 56 218 56 248 56 c 0,33,34
 277 56 277 56 294 72 c 0,35,36
 306 84 306 84 308 100 c 1,37,-1
 372 85 l 1,38,39
 369 68 369 68 360 51 c 0,40,41
 346 27 346 27 322 13 c 0,42,43
 292 -4 292 -4 248 -4 c 256,0,1
EndSplineSet
EndChar

StartChar: glyph3487
Encoding: 3524 -1 145
Width: 500
GlyphClass: 2
Flags: W
LayerCount: 2
Fore
SplineSet
250 -5 m 256,0,1
 179 -5 179 -5 128 25 c 0,2,3
 83 51 83 51 56 97 c 0,4,5
 26 150 26 150 26 223 c 2,6,-1
 26 507 l 2,7,8
 26 580 26 580 56 633 c 0,9,10
 83 679 83 679 128 705 c 0,11,12
 179 735 179 735 250 735 c 256,13,14
 321 735 321 735 372 705 c 0,15,16
 417 679 417 679 444 633 c 0,17,18
 474 580 474 580 474 507 c 2,19,-1
 474 223 l 2,20,21
 474 150 474 150 444 97 c 0,22,23
 417 51 417 51 372 25 c 0,24,25
 321 -5 321 -5 250 -5 c 256,0,1
250 49 m 256,26,27
 301 49 301 49 337 70 c 0,28,29
 371 89 371 89 391 124 c 0,30,31
 415 165 415 165 415 223 c 2,32,-1
 415 507 l 2,33,34
 415 565 415 565 391 606 c 0,35,36
 371 641 371 641 337 660 c 0,37,38
 301 681 301 681 250 681 c 256,39,40
 199 681 199 681 163 660 c 0,41,42
 129 641 129 641 109 606 c 0,43,44
 85 565 85 565 85 507 c 2,45,-1
 85 223 l 2,46,47
 85 165 85 165 109 124 c 0,48,49
 129 89 129 89 163 70 c 0,50,51
 199 49 199 49 250 49 c 256,26,27
EndSplineSet
EndChar
